<?xml version="1.0" encoding="UTF-8"?>
<svg xmlns="http://www.w3.org/2000/svg" viewBox="0.0 254.1 2000.0 1491.8" width="2000" height="1492">
  <title>Blank Map of China</title>
  <rect x="0.0" y="254.1" width="2000.0" height="1491.8" fill="white"/>
  <g>
    <path d="M1444.336,1501.908L1443.194,1503.965L1441.366,1503.663L1441.366,1502.15L1440.909,1501.726L1441.48,1500.333L1441.823,1499.91L1443.879,1501.121ZM1561.074,1250.271L1558.447,1251.305L1550.223,1248.139L1544.397,1244.582L1540.856,1240.374L1540.399,1238.56L1544.397,1238.884L1548.395,1240.439L1549.309,1242.77L1550.908,1243.482L1551.936,1244.841L1559.361,1248.01L1560.503,1248.979ZM1574.781,1306.663L1574.324,1307.426L1570.44,1305.327L1566.214,1304.882L1564.729,1303.037L1564.501,1300.108L1568.955,1300.235L1574.438,1302.846L1575.695,1304.182ZM1570.897,1317.075L1570.783,1317.772L1568.042,1315.426L1566.785,1314.982L1567.356,1313.65L1569.184,1313.332L1570.669,1316.314ZM1578.208,1309.269L1577.979,1310.984L1577.065,1310.73L1575.923,1307.743L1576.609,1306.981L1578.208,1307.171ZM1496.308,1468.244L1493.91,1469.89L1492.425,1469.098L1492.425,1466.901L1493.224,1464.948L1492.31,1463.544L1493.11,1461.833L1494.938,1461.345L1495.509,1462.383L1496.537,1462.994L1496.879,1463.544L1496.879,1464.643L1495.851,1466.474L1496.651,1467.451ZM1196.924,1619.036L1198.066,1620.217L1201.265,1619.39L1201.836,1620.866L1201.722,1621.574L1200.694,1623.285L1198.066,1621.987L1195.439,1622.282L1193.612,1622.164L1193.041,1621.338L1194.525,1619.686ZM1541.656,1374.826L1538.914,1375.637L1537.886,1375.637L1537.886,1373.015L1540.171,1370.578L1541.085,1371.39L1541.656,1372.702ZM1297.442,1560.479L1297.785,1562.092L1295.272,1559.642L1294.587,1559.523L1293.33,1558.626L1292.645,1557.132L1294.587,1557.072L1296.414,1558.865ZM1273.227,1601.708L1272.541,1602.36L1271.627,1601.175L1271.399,1599.397L1270.714,1598.449L1272.313,1597.204L1272.998,1595.899L1274.711,1596.137L1275.511,1596.552L1273.912,1597.916L1273.569,1598.508ZM1268.543,1600.405L1265.459,1601.116L1264.774,1600.998L1265.916,1599.22L1268.658,1597.975ZM1120.393,1604.907L1118.337,1603.13L1114.911,1600.227L1113.54,1599.872L1109.77,1601.294L1104.402,1601.827L1103.26,1600.346L1100.632,1601.472L1098.119,1597.975L1095.15,1597.797L1091.494,1595.128L1090.124,1593.764L1089.667,1591.746L1088.524,1590.677L1087.154,1590.855L1085.555,1589.786L1082.927,1588.717L1080.871,1588.064L1079.843,1588.598L1078.815,1588.836L1078.587,1587.47L1078.701,1583.428L1078.473,1579.799L1077.902,1578.192L1076.531,1577.001L1075.274,1576.406L1074.817,1574.559L1075.274,1570.924L1076.188,1568.419L1077.902,1568.002L1080.072,1566.212L1081.1,1563.704L1082.471,1561.375L1077.559,1558.088L1074.932,1556.892L1072.076,1557.431L1068.535,1558.447L1066.593,1558.686L1065.679,1558.268L1063.623,1555.278L1062.481,1554.799L1059.968,1554.619L1057.798,1554.619L1056.541,1555.936L1054.714,1556.354L1052.772,1556.414L1050.83,1554.799L1047.975,1552.705L1043.406,1551.268L1042.834,1549.531L1041.692,1547.495L1039.979,1545.637L1037.123,1543.118L1034.724,1541.859L1033.582,1542.639L1031.983,1544.078L1025.929,1547.075L1023.188,1548.214L1021.703,1549.052L1020.561,1550.31L1020.104,1553.363L1019.533,1556.833L1017.819,1558.566L1016.106,1559.881L1014.392,1560.001L1012.679,1559.941L1010.966,1560.479L1006.054,1563.943L1003.769,1563.645L1001.828,1561.734L1001.028,1560.3L998.858,1560.658L996.002,1562.271L994.746,1565.257L994.06,1568.002L993.375,1569.195L992.461,1569.552L991.547,1569.672L982.752,1561.674L982.295,1561.256L980.696,1562.928L979.211,1567.107L978.183,1567.942L977.498,1567.584L973.842,1562.211L972.929,1561.674L972.129,1561.853L970.987,1563.645L968.702,1566.212L966.989,1567.763L966.875,1569.493L964.933,1571.043L962.763,1572.593L961.963,1572.712L960.478,1572.116L958.536,1570.089L957.166,1567.942L953.739,1565.854L949.855,1564.063L947.228,1562.689L945.743,1562.331L944.372,1562.928L943.687,1563.824L942.773,1565.913L940.489,1569.374L938.318,1572.116L936.377,1573.904L934.892,1575.096L933.749,1573.964L931.579,1573.07L929.066,1573.01L925.868,1574.798L923.241,1571.282L922.555,1571.103L921.527,1571.401L920.385,1572.235L919.585,1574.202L918.786,1576.882L917.187,1578.609L915.702,1579.382L916.159,1580.93L916.958,1582.536L916.844,1583.963L917.415,1586.222L918.215,1588.48L921.299,1592.102L922.441,1594.06L922.67,1595.662L922.784,1601.59L922.67,1604.018L922.098,1608.753L922.098,1611.474L923.355,1612.715L924.611,1614.193L924.497,1614.961L923.926,1615.256L922.213,1616.91L921.527,1617.088L920.271,1616.438L918.786,1615.906L917.644,1615.256L916.273,1614.252L913.189,1614.37L908.049,1615.965L907.021,1615.493L906.221,1614.607L905.878,1612.715L906.107,1610.528L905.65,1609.167L904.622,1608.339L905.307,1604.433L903.48,1602.893L903.822,1602.419L903.137,1598.153L903.251,1597.145L902.909,1596.789L901.652,1596.433L899.71,1597.085L893.885,1599.872L888.859,1605.025L886.574,1606.15L884.29,1606.623L881.549,1605.735L878.464,1605.143L874.238,1606.446L872.068,1605.854L871.04,1604.788L870.24,1603.189L870.697,1601.175L870.469,1599.694L868.641,1598.923L866.699,1598.271L865.557,1596.374L864.986,1594.238L865.443,1591.449L865.785,1588.48L864.757,1587.113L861.788,1586.4L854.477,1585.033L847.966,1584.32L845.225,1584.676L843.055,1584.32L841.798,1583.785L841.113,1582.833L841.113,1581.525L842.141,1578.43L843.397,1575.393L846.367,1571.043L846.596,1568.002L846.367,1564.481L847.852,1559.762L850.479,1556.235L851.736,1555.158L851.393,1553.602L850.365,1552.166L848.88,1551.388L846.481,1550.43L842.598,1550.19L837.458,1549.232L831.289,1547.135L831.975,1543.118L831.975,1540.599L831.175,1538.558L829.919,1537.117L829.233,1535.795L830.376,1532.19L828.891,1528.28L827.292,1526.655L825.578,1524.668L825.35,1522.44L826.149,1520.391L830.376,1515.988L830.376,1514.963L829.348,1515.023L828.205,1515.144L822.494,1516.712L821.809,1515.747L819.753,1515.144L815.526,1515.023L810.615,1515.325L804.447,1516.893L798.735,1519.607L796.222,1521.536L793.938,1522.681L792.224,1523.102L790.054,1522.259L790.283,1519.547L794.166,1514.6L794.623,1511.219L793.481,1508.259L793.367,1505.961L791.996,1504.449L790.054,1503.723L789.026,1502.029L789.026,1497.184L790.74,1492.151L793.481,1490.574L795.194,1489.785L795.651,1488.814L794.737,1485.352L794.852,1483.103L796.565,1478.724L798.164,1475.436L801.362,1475.984L802.733,1475.193L804.218,1474.035L805.931,1472.024L807.074,1469.708L808.444,1464.215L809.358,1463.422L813.356,1464.338L814.498,1463.666L816.669,1460.489L818.725,1456.576L821.695,1455.352L823.751,1455.23L824.779,1453.944L824.664,1452.046L822.723,1448.983L821.809,1446.592L822.037,1445.12L825.007,1444.2L825.692,1442.42L825.236,1438.551L826.492,1433.941L827.177,1428.463L827.406,1424.395L827.406,1421.311L827.063,1418.04L826.606,1412.107L825.35,1406.909L825.578,1404.927L825.35,1398.603L824.55,1393.262L822.951,1392.268L819.981,1390.527L818.268,1390.216L816.897,1390.838L816.326,1392.703L815.069,1394.443L813.356,1394.07L812.671,1392.268L811.528,1389.968L808.102,1379.069L807.645,1375.949L807.074,1372.765L805.931,1371.203L804.675,1370.328L801.819,1366.638L800.334,1365.074L799.649,1364.823L798.05,1365.074L796.565,1365.074L795.309,1363.258L794.28,1361.003L793.138,1359.875L791.196,1359.311L789.255,1359.499L788.112,1361.442L787.313,1362.569L785.942,1365.136L783.543,1368.765L782.401,1370.078L781.373,1369.39L776.804,1365.637L774.634,1364.636L771.55,1365.762L766.866,1364.886L765.039,1364.698L761.155,1361.692L759.556,1361.317L754.073,1363.258L752.817,1364.636L752.131,1364.698L750.646,1364.01L749.39,1363.07L749.276,1362.507L750.875,1361.003L750.989,1360.001L750.875,1358.998L753.045,1356.05L758.871,1350.336L757.957,1347.948L755.558,1343.292L755.33,1340.962L754.302,1339.954L751.446,1340.836L745.621,1345.054L744.821,1344.614L744.935,1343.103L744.364,1338.82L746.192,1337.559L749.047,1335.92L751.218,1334.153L751.789,1332.764L751.218,1332.322L747.905,1332.891L746.649,1331.88L744.593,1327.963L742.993,1326.383L741.623,1325.561L736.825,1327.584L731.228,1330.428L725.06,1334.279L725.174,1336.298L724.375,1336.802L723.232,1338.064L722.09,1339.828L721.062,1340.458L719.92,1340.521L717.635,1340.017L713.295,1338L708.726,1336.361L707.698,1336.55L701.415,1335.415L701.187,1334.468L700.273,1332.638L698.446,1330.996L696.732,1330.428L691.821,1333.964L686.338,1336.55L683.139,1339.639L680.512,1342.663L677.542,1343.292L677.428,1345.18L676.172,1346.879L673.887,1348.954L669.432,1351.593L666.348,1353.037L656.753,1354.356L653.327,1355.234L651.842,1356.615L650.243,1360.189L649.1,1363.446L646.359,1366.138L641.561,1369.703L635.85,1372.64L634.251,1374.576L634.023,1375.7L634.708,1376.137L635.393,1377.01L635.393,1378.32L634.594,1379.755L630.939,1382.248L628.768,1383.432L626.712,1384.18L624.428,1384.366L622.143,1383.993L621.458,1383.619L620.658,1384.117L618.602,1384.678L616.775,1384.802L612.891,1387.604L610.721,1387.604L607.979,1386.981L604.438,1386.546L601.925,1386.546L601.811,1385.051L602.154,1380.69L601.012,1379.63L597.471,1378.57L593.473,1377.135L591.531,1375.575L590.503,1375.076L589.018,1375.325L586.619,1376.948L584.335,1378.819L582.507,1379.007L580.679,1378.071L578.852,1376.948L572.798,1375.325L570.057,1375.076L565.259,1375.388L561.261,1375.013L560.69,1374.514L560.69,1373.639L561.261,1371.828L561.604,1370.14L561.147,1369.14L557.149,1367.889L553.38,1367.014L549.496,1366.701L546.869,1367.327L544.242,1368.702L542.186,1371.14L539.102,1372.203L535.446,1374.014L533.619,1375.762L530.877,1379.381L526.994,1383.868L523.453,1388.288L521.625,1392.517L519.226,1395.188L516.713,1397.113L514.886,1402.386L513.058,1400.712L510.888,1398.354L510.431,1395.064L512.944,1386.234L513.515,1382.622L512.944,1381.251L512.144,1377.634L510.659,1376.449L506.319,1374.576L504.948,1374.576L503.463,1375.825L502.093,1376.698L500.151,1377.51L495.353,1379.007L491.127,1379.755L490.099,1380.316L489.756,1381.313L490.099,1382.56L487.358,1382.124L484.502,1381.812L482.217,1381.999L476.62,1384.304L474.679,1384.553L472.508,1384.304L469.653,1384.242L464.17,1384.304L459.372,1383.681L455.603,1380.441L452.862,1379.069L449.892,1377.946L447.036,1377.135L446.008,1375.388L445.094,1374.514L442.695,1374.201L440.754,1374.826L439.611,1379.194L438.583,1380.067L436.185,1380.441L433.557,1379.381L430.131,1377.135L428.76,1374.639L427.504,1373.764L425.676,1374.888L425.562,1378.071L425.219,1380.254L423.049,1381.126L421.678,1380.503L420.65,1378.258L418.137,1373.015L415.51,1369.953L412.997,1367.952L404.43,1367.952L398.148,1367.389L395.292,1366.513L394.264,1364.51L395.292,1360.439L396.549,1357.305L396.549,1356.552L395.406,1356.175L393.693,1355.924L386.839,1357.932L385.012,1357.744L383.87,1357.054L382.385,1356.426L381.242,1355.485L380.329,1354.105L374.503,1350.776L372.79,1348.891L369.591,1346.564L366.964,1344.992L365.251,1340.458L363.766,1336.109L362.966,1333.837L360.453,1332.575L357.712,1331.628L353.029,1333.522L349.259,1334.973L346.518,1335.163L342.52,1330.68L339.207,1325.814L335.438,1321.637L332.925,1319.483L328.47,1319.293L323.33,1316.948L316.591,1311.555L311.679,1307.489L303.227,1302.973L301.285,1301.127L300.599,1299.535L299.457,1296.348L297.63,1293.35L291.69,1292.074L284.951,1291.116L277.754,1292.967L272.614,1301.955L270.101,1303.864L268.045,1303.991L266.332,1301.7L264.847,1299.344L264.047,1296.667L260.506,1294.69L256.508,1292.137L254.452,1290.094L252.168,1288.88L249.998,1288.305L245.771,1286.643L241.088,1284.725L238.918,1284.469L238.689,1283.125L239.375,1280.18L238.918,1277.425L237.547,1276.271L235.377,1276.592L230.465,1272.615L230.237,1272.615L230.122,1272.422L228.752,1271.331L226.239,1269.725L222.127,1269.789L219.043,1270.432L216.758,1268.761L213.446,1266.126L212.76,1265.547L211.846,1264.582L208.42,1259.561L204.422,1253.564L202.48,1252.725L201.452,1253.177L200.195,1256.338L199.396,1256.016L197.911,1256.209L196.198,1257.37L194.484,1257.628L193.342,1257.305L192.885,1256.532L193.456,1252.338L192.428,1250.982L193.342,1248.074L194.827,1245.553L193.228,1243.676L191.4,1241.022L191.172,1238.56L192.2,1235.512L192.657,1232.852L192.314,1231.943L190.829,1230.449L185.118,1223.23L184.775,1222.448L183.747,1220.038L183.404,1216.387L182.605,1213.776L181.691,1211.817L181.805,1210.837L182.491,1210.38L186.032,1209.857L189.344,1209.596L191.629,1208.876L192.771,1210.38L193.228,1212.601L193.799,1213.776L195.969,1215.865L198.482,1217.887L200.995,1217.626L203.165,1216.778L205.107,1213.45L206.478,1212.666L208.077,1212.536L208.077,1212.274L207.963,1210.118L208.534,1204.886L208.305,1202.791L207.62,1200.891L207.734,1198.793L207.506,1195.709L205.678,1193.608L204.536,1192.82L204.308,1191.703L204.993,1189.599L205.336,1187.165L204.65,1185.125L203.165,1184.203L201.452,1182.622L199.396,1180.578L198.482,1178.995L196.769,1177.346L194.827,1174.705L194.37,1169.019L194.256,1162.926L193.57,1159.941L192.428,1155.094L192.542,1153.499L193.228,1152.302L198.939,1148.376L200.195,1146.91L200.31,1145.711L200.081,1144.044L199.053,1142.11L196.769,1140.642L193.57,1138.238L190.601,1135.766L185.689,1134.228L179.749,1132.354L178.264,1130.48L176.894,1126.058L174.381,1119.211L171.753,1111.878L169.697,1107.429L169.583,1105.203L170.84,1099.663L170.725,1098.513L169.697,1098.107L167.641,1098.784L166.042,1099.663L164.671,1099.257L163.301,1098.31L163.072,1097.972L162.958,1097.837L160.559,1098.446L155.762,1098.784L154.163,1098.716L151.764,1098.649L146.967,1097.363L140.456,1095.671L133.831,1093.301L130.175,1091.403L128.919,1090.725L125.949,1088.758L123.779,1087.061L123.436,1082.577L121.837,1082.917L118.182,1084.548L113.841,1085.567L111.557,1085.567L110.529,1084.888L109.158,1080.129L108.13,1078.836L106.188,1078.291L104.132,1077.474L103.104,1076.248L102.876,1074.681L103.789,1072.908L104.932,1071.544L105.046,1063.14L104.361,1060.128L103.789,1057.661L102.19,1054.507L100.82,1052.585L98.649,1050.8L95.337,1048.944L92.367,1048.257L88.712,1049.563L87.569,1049.082L86.085,1043.303L85.171,1042.132L78.774,1039.72L75.919,1039.168L72.492,1039.927L70.664,1040.547L69.179,1039.513L66.78,1038.203L64.382,1037.237L61.526,1037.237L59.584,1037.789L59.127,1037.444L58.214,1036.409L54.33,1033.232L54.216,1032.403L60.155,1029.291L63.696,1028.045L65.524,1027.145L65.867,1027.284L66.78,1028.807L69.065,1029.706L70.664,1029.498L71.578,1028.737L74.434,1027.007L76.718,1024.998L77.975,1023.335L77.289,1020.7L73.748,1017.576L71.464,1015.839L70.778,1014.727L71.35,1011.249L72.149,1007.836L71.692,1006.512L71.007,1005.396L70.664,1001.697L69.179,997.155L67.466,994.496L67.009,990.924L66.895,987.629L68.951,982.362L68.151,980.111L66.095,978.071L58.785,974.408L51.246,972.011L48.39,972.081L46.563,971.94L44.507,974.056L43.25,976.874L41.537,977.156L38.338,975.958L36.168,974.126L34.683,970.388L33.427,965.585L32.741,964.1L33.084,962.826L33.884,961.623L35.94,960.561L36.282,959.428L35.94,958.081L34.341,956.309L32.627,953.896L30,948.781L30.457,945.936L30.914,941.876L30.8,939.736L33.427,939.237L36.854,938.095L38.453,936.31L39.481,934.453L39.709,933.309L38.681,928.802L37.31,926.868L37.196,925.291L37.882,924.144L38.795,922.063L40.509,917.897L42.222,915.236L43.136,914.588L45.192,913.94L50.104,913.221L55.472,911.348L61.869,905.722L64.039,904.134L66.78,903.339L68.837,903.411L69.179,902.689L67.809,899.218L68.151,897.987L68.951,896.974L69.865,896.539L74.319,898.349L77.746,898.132L81.858,897.046L90.654,890.884L91.796,891.029L92.71,891.827L93.738,895.525L94.994,903.339L95.679,904.35L101.848,904.423L106.074,901.604L107.902,900.954L110.871,901.388L112.471,900.086L114.07,899.145L116.012,902.4L118.524,900.809L121.152,898.349L122.408,895.742L124.236,892.988L125.606,889.432L126.178,886.09L126.863,884.563L128.348,882.962L132.003,876.039L134.744,874.287L137.143,873.63L143.426,874.871L146.624,874.725L156.105,875.601L160.445,874.287L163.529,872.973L167.984,873.192L173.238,872.096L180.32,863.46L180.435,861.627L180.891,859.646L183.404,857.664L186.603,855.9L192.885,851.634L205.793,844.927L210.362,842.195L212.303,842.269L217.101,840.57L225.439,837.242L227.724,833.095L229.894,832.279L239.717,831.538L240.289,831.093L240.631,830.351L240.06,827.382L239.489,824.781L240.174,824.037L240.974,822.847L240.86,821.21L239.375,815.845L238.461,810.694L237.89,806.131L238.004,804.334L239.26,801.411L240.745,798.71L246.228,796.156L249.883,795.405L250.112,793.751L247.142,792.698L244.972,791.042L244.629,790.063L244.743,789.009L245.2,788.029L248.855,786.144L252.396,784.333L256.623,785.465L257.537,784.711L257.765,782.899L256.851,781.011L255.937,777.986L253.996,776.397L253.881,774.504L255.138,771.32L253.424,765.322L251.597,759.995L248.513,750.916L246.457,748.316L245.314,744.104L244.058,741.881L244.172,738.581L244.401,736.276L244.058,731.737L243.487,726.728L244.058,721.708L245.2,718.382L244.858,717.066L245.543,716.137L247.256,715.827L248.056,714.432L247.256,713.037L244.286,711.951L240.86,710.243L236.862,710.476L232.75,710.787L230.694,709.467L228.866,707.913L228.752,706.903L231.265,704.18L234.691,701.377L240.06,700.131L246,698.259L248.97,696.933L252.967,695.996L257.537,695.606L259.935,695.84L265.761,694.044L275.127,690.604L283.694,687.708L286.435,685.984L288.606,687.708L289.634,691.542L292.033,693.497L294.545,694.434L295.916,694.434L300.142,692.872L304.711,691.855L306.539,692.403L308.824,694.356L311.451,696.152L312.821,695.996L313.964,694.669L315.22,691.933L316.02,688.491L316.134,684.808L315.677,682.533L314.763,681.748L310.651,680.413L306.653,678.213L306.196,676.247L306.311,674.83L307.339,671.364L309.852,664.971L312.479,656.105L313.85,649.117L318.19,638.678L321.617,627.714L327.214,611.864L328.128,608.714L328.585,603.698L328.927,601.673L330.869,600.538L334.067,601.592L342.063,605.236L348.117,608.31L350.63,609.36L354.399,610.411L360.225,611.702L363.652,611.299L366.507,610.572L370.505,610.491L376.559,611.46L378.501,611.46L380.9,611.622L382.499,613.155L383.413,616.621L384.669,618.152L386.954,617.588L391.865,614.526L394.949,612.106L398.833,608.633L402.717,608.148L406.829,607.34L408.314,605.641L409.799,601.511L412.312,598.429L412.654,594.531L411.855,591.766L410.027,587.205L410.141,584.186L409.228,575.355L408.085,567.315L409.342,560.896L411.284,553.634L412.083,551.401L413.454,548.504L415.281,545.023L417.794,543.945L424.991,543.198L431.616,541.704L435.042,540.208L438.469,539.294L440.639,538.13L444.295,533.051L446.008,530.048L447.264,522.191L446.351,518.421L447.036,515.064L448.864,513.048L451.262,511.03L452.976,510.694L456.402,510.105L462.228,510.357L465.198,511.282L468.168,511.703L469.995,511.03L471.252,509.516L473.194,509.011L476.163,508.337L479.133,507.411L480.732,507.579L481.075,509.852L480.847,511.535L481.418,513.888L482.56,515.484L482.217,517.079L480.504,518.085L478.905,519.427L478.448,521.186L480.618,523.363L481.304,525.538L484.845,526.792L487.472,528.212L488.5,529.548L488.271,531.133L487.015,532.801L485.758,534.551L485.644,535.633L485.987,536.882L488.614,537.714L491.698,539.044L496.496,540.873L499.808,544.111L503.006,545.023L504.606,548.256L504.948,552.89L508.261,555.204L513.287,558.505L515.8,559.082L517.399,560.978L519.912,563.202L522.082,563.943L524.595,564.272L528.821,562.131L533.619,561.967L536.132,563.12L538.645,567.643L540.358,569.04L541.386,570.353L543.099,571.502L544.699,571.666L547.211,570.682L548.811,568.711L550.981,569.122L551.78,570.436L552.237,572.651L553.38,575.355L556.121,577.402L560.005,578.63L560.576,579.611L561.147,582.39L562.175,584.268L563.546,586.715L564.916,591.277L565.259,594.937L565.83,596.968L567.658,600.295L570.513,605.641L572.798,610.087L575.425,610.976L577.71,612.429L578.966,615.735L581.365,621.933L581.707,626.029L581.936,629.077L582.736,630.439L582.85,632.121L580.908,638.598L579.195,641.551L578.966,644.022L580.108,648.321L581.707,651.581L581.936,654.757L580.565,657.056L578.281,659.988L577.138,661.65L575.311,663.074L572.569,668.683L571.427,674.83L571.085,677.977L572.113,680.256L573.826,682.768L574.283,684.965L577.138,689.821L577.938,692.872L579.08,692.95L580.337,691.933L583.421,691.933L586.162,692.95L588.904,695.137L591.759,696.387L595.871,696.074L598.042,697.245L600.326,698.259L605.238,698.571L608.893,698.571L614.49,698.571L619.059,700.053L627.055,701.299L631.967,701.144L638.592,700.053L642.589,700.754L654.583,702.39L661.665,704.18L666.12,706.125L669.204,709.234L672.859,714.045L675.715,716.215L683.368,717.531L688.622,723.176L692.734,725.261L699.588,730.659L704.5,732.738L710.325,734.661L719.806,733.892L720.377,734.584L719.691,737.506L719.12,741.497L719.12,744.411L720.034,745.866L723.689,746.785L725.403,748.163L726.773,750.916L727.459,752.597L730.543,760.909L735.455,773.216L736.026,777.911L737.739,780.935L742.993,785.692L745.849,789.235L749.961,792.999L751.332,796.457L751.675,800.886L752.703,802.011L760.356,800.961L766.866,800.286L778.746,799.01L794.966,801.336L811.757,803.585L826.606,805.532L833.917,806.505L850.479,808.6L859.732,805.906L866.813,803.884L870.126,804.109L883.833,806.505L891.943,807.703L901.995,809.273L909.077,809.871L914.788,809.871L917.529,810.469L920.042,811.515L921.756,813.009L927.01,820.391L929.98,823.74L935.805,826.193L949.056,829.015L956.48,830.722L964.933,832.65L970.416,835.613L976.812,839.091L985.151,843.525L994.175,841.604L1003.998,839.461L1010.052,838.204L1010.052,847.435L1018.847,848.246L1021.589,848.099L1025.472,850.162L1027.642,849.278L1029.699,847.288L1032.326,844.115L1035.981,842.712L1042.492,839.165L1043.977,838.278L1053.572,833.169L1067.85,826.936L1074.246,823.889L1076.188,823.219L1079.729,821.657L1082.242,820.615L1086.468,819.721L1092.408,819.199L1098.805,818.007L1113.197,815.77L1115.025,815.547L1123.249,814.651L1126.676,813.756L1131.816,814.204L1138.555,814.577L1143.01,815.099L1148.95,814.651L1157.174,814.054L1163.685,814.129L1166.997,813.383L1171.795,811.067L1175.107,809.198L1180.247,806.954L1186.53,804.559L1190.87,802.46L1193.84,801.036L1197.381,799.685L1198.295,797.959L1199.323,796.682L1201.15,794.428L1204.577,790.289L1207.204,786.672L1208.461,785.088L1211.317,781.464L1213.601,778.743L1216.685,775.034L1219.198,773.822L1222.282,772.837L1230.735,769.196L1232.334,768.437L1233.819,768.285L1236.789,765.322L1239.187,762.812L1240.901,760.909L1244.213,760.224L1246.041,758.853L1246.269,757.023L1245.927,754.277L1244.328,751.527L1242.957,749.004L1238.045,744.334L1235.532,741.421L1232.905,737.659L1231.877,734.123L1230.049,731.891L1229.136,729.889L1229.478,727.576L1231.877,723.485L1232.791,720.935L1233.819,716.292L1236.103,709.389L1238.045,706.203L1240.215,703.013L1244.899,698.805L1249.125,698.025L1251.752,698.805L1257.349,698.805L1261.233,699.039L1263.974,701.144L1267.058,705.347L1270.599,706.903L1281.451,710.166L1286.134,710.864L1289.447,711.02L1294.358,712.106L1295.957,712.339L1298.47,713.037L1300.526,712.261L1303.725,709.467L1307.723,706.359L1309.436,705.581L1312.52,704.258L1314.119,702.935L1316.861,699.429L1320.516,696.699L1324.856,692.559L1327.027,689.43L1327.484,687.473L1328.055,685.278L1329.311,684.102L1332.053,683.082L1335.022,682.768L1340.734,684.651L1348.501,684.102L1350.214,683.867L1357.296,682.768L1360.38,681.905L1364.949,681.041L1368.376,677.584L1372.945,673.413L1376.258,671.128L1378.542,670.655L1381.284,668.288L1382.654,665.682L1382.312,663.469L1381.855,661.571L1383.454,658.087L1386.424,651.978L1389.165,649.117L1391.45,646.81L1392.935,643.146L1394.648,642.029L1396.932,641.631L1400.016,639.157L1402.301,638.598L1406.07,639.795L1411.667,640.115L1415.323,640.274L1417.379,639.795L1418.064,638.438L1418.064,636.361L1419.206,631.721L1419.663,630.199L1420.691,629.478L1424.118,629.398L1426.517,631.08L1428.116,632.442L1430.286,632.602L1432.571,631.721L1435.655,627.955L1440.795,625.788L1443.536,625.226L1448.334,623.46L1451.304,624.102L1456.901,624.584L1459.071,624.183L1461.47,624.584L1463.526,622.013L1465.239,621.45L1468.894,622.576L1471.179,624.584L1475.405,627.072L1480.774,628.195L1485.228,627.634L1489.912,628.676L1492.653,628.596L1493.91,627.554L1497.793,625.548L1498.707,622.736L1498.25,620.003L1498.707,616.944L1497.565,614.607L1495.28,611.299L1494.366,609.037L1494.252,606.127L1492.767,603.293L1489.226,599.97L1486.942,598.348L1482.144,592.498L1480.545,591.114L1479.974,590.219L1479.517,588.183L1477.69,587.286L1475.405,585.737L1474.149,584.186L1473.349,581.491L1472.778,579.693L1470.836,578.221L1468.78,577.402L1466.381,576.338L1462.612,574.782L1460.442,571.748L1456.558,565.999L1454.273,564.107L1446.163,563.367L1443.194,561.967L1439.881,562.461L1437.825,563.367L1433.484,563.367L1431.2,563.943L1428.23,567.643L1424.346,572.569L1421.262,575.601L1418.978,578.63L1417.95,579.775L1415.894,579.121L1413.038,575.601L1409.04,572.487L1405.271,571.092L1403.672,570.271L1399.217,569.533L1395.676,569.779L1391.335,570.928L1386.995,570.682L1385.167,569.943L1382.426,570.025L1377.4,573.307L1374.887,576.993L1371.803,578.139L1369.061,575.683L1365.863,572.815L1362.893,569.286L1361.066,565.917L1359.923,557.102L1363.579,554.46L1368.262,551.567L1368.605,546.847L1368.49,541.621L1369.404,535.8L1373.63,530.466L1375.801,525.956L1376.143,523.196L1378.199,518.504L1380.141,513.636L1382.768,507.158L1387.794,495.757L1393.734,482.09L1396.704,475.269L1403.215,479.534L1407.441,481.664L1414.523,485.068L1421.948,485.833L1428.915,489.4L1432.571,490.503L1434.512,490.503L1444.45,481.749L1452.789,474.244L1462.498,468.429L1469.58,467.658L1474.948,465.945L1478.489,463.286L1480.545,458.905L1481.231,452.794L1479.746,449.085L1476.319,447.789L1475.405,446.493L1477.118,445.11L1478.375,442.601L1479.175,438.702L1481.116,435.058L1484.429,431.668L1486.142,427.839L1486.485,423.566L1488.427,419.374L1491.968,415.174L1493.91,411.229L1494.252,407.629L1496.08,403.232L1500.877,395.295L1504.076,386.268L1509.444,379.963L1518.125,373.552L1523.608,367.124L1525.778,360.767L1525.55,355.111L1523.037,350.252L1522.58,345.203L1524.179,340.142L1522.809,336.339L1518.468,333.801L1513.442,333.165L1507.388,334.435L1504.076,332.893L1503.39,328.442L1504.989,324.802L1508.873,322.068L1515.384,315.31L1524.293,304.492L1533.203,298.603L1546.567,296.852L1557.305,293.346L1568.27,289.649L1576.152,287.891L1577.522,289.094L1581.749,289.371L1589.059,288.816L1595.798,287.243L1602.081,284.741L1606.992,284.092L1610.648,285.483L1612.704,285.483L1614.074,285.668L1614.874,285.668L1616.473,284.648L1620.699,286.502L1628.695,292.145L1633.721,294.638L1635.891,293.992L1638.176,295.561L1640.575,299.248L1643.659,301.458L1649.142,302.47L1654.624,306.513L1656.909,306.788L1657.594,304.492L1659.65,303.205L1662.963,302.837L1667.76,304.86L1674.043,309.174L1677.926,311.099L1679.525,310.549L1681.239,311.374L1682.61,313.388L1682.724,315.95L1682.153,317.23L1683.752,319.33L1685.465,319.33L1688.321,320.334L1690.491,324.073L1692.433,325.803L1693.918,327.35L1694.146,328.533L1694.26,329.805L1693.804,330.805L1693.118,332.349L1692.89,334.073L1693.804,335.977L1697.345,337.426L1698.487,338.785L1698.829,340.685L1699.858,342.674L1702.256,345.022L1703.17,347.007L1702.599,348.54L1703.284,349.892L1704.541,350.883L1704.769,354.662L1704.883,356.818L1706.825,359.242L1707.168,364.082L1708.539,369.537L1713.108,376.938L1714.593,381.03L1714.136,385.736L1714.821,387.952L1716.877,389.104L1717.905,391.052L1717.791,393.97L1718.59,395.825L1719.276,397.767L1718.819,400.766L1719.39,403.496L1720.532,405.08L1721.218,407.981L1721.675,411.668L1724.759,417.45L1730.356,425.311L1733.782,431.408L1735.039,435.752L1735.039,439.309L1733.897,442.082L1733.782,444.072L1734.925,445.37L1735.153,447.098L1734.81,449.257L1736.638,451.845L1742.806,456.239L1740.293,463.028L1739.722,467.83L1739.951,472.792L1741.55,476.379L1744.291,478.426L1746.004,480.557L1746.576,482.771L1749.888,485.153L1755.828,487.787L1763.367,488.212L1772.505,486.513L1778.102,486.258L1780.158,487.362L1780.843,489.061L1780.272,491.436L1781.757,492.877L1785.526,493.64L1788.154,495.08L1789.638,497.28L1791.352,497.873L1793.408,496.942L1795.35,497.027L1797.406,498.295L1798.662,497.873L1799.69,496.519L1801.518,496.519L1803.346,496.604L1804.488,499.733L1806.315,501.507L1808.828,501.929L1812.712,505.809L1820.479,516.827L1825.505,520.684L1830.531,521.94L1836.813,522.191L1838.87,526.374L1837.156,530.883L1836.813,534.634L1838.184,535.966L1840.126,540.291L1842.982,542.866L1843.439,544.858L1844.809,547.096L1844.238,551.236L1841.839,557.267L1842.525,562.461L1846.18,566.657L1848.35,570.764L1848.807,574.7L1849.721,577.075L1851.092,577.893L1854.861,577.648L1861.143,576.174L1865.712,576.42L1868.682,578.384L1875.878,578.466L1887.415,576.666L1894.726,576.093L1897.81,576.829L1900.551,574.29L1902.95,568.547L1905.12,565.835L1907.176,566.164L1910.489,564.354L1915.058,560.319L1919.056,558.34L1923.967,558.505L1929.336,558.752L1932.648,557.02L1935.732,553.468L1941.215,550.326L1952.752,546.184L1955.493,545.604L1956.75,545.77L1960.634,546.433L1964.06,548.007L1967.259,551.236L1967.715,553.303L1967.373,556.029L1966.687,557.598L1965.431,559.412L1964.175,562.296L1964.974,564.519L1966.802,569.286L1968.287,572.733L1970,576.829L1969.315,578.221L1968.287,581.083L1965.088,585.818L1963.375,587.612L1961.547,589.405L1958.349,589.812L1956.978,590.219L1955.379,590.952L1954.465,592.66L1953.323,593.88L1951.496,596.237L1951.381,598.267L1952.181,601.268L1952.638,604.346L1950.467,607.097L1948.868,611.299L1948.411,612.59L1947.612,615.816L1947.383,616.863L1946.927,623.62L1944.87,628.195L1941.901,633.482L1942.586,636.681L1943.043,639.556L1942.358,640.992L1942.243,642.269L1941.786,645.058L1940.873,646.173L1938.245,647.924L1936.646,649.991L1936.989,653.249L1936.189,656.026L1935.047,658.483L1933.676,660.067L1931.963,661.096L1930.707,661.967L1929.793,665.05L1929.564,667.42L1928.65,669.866L1929.222,672.31L1928.308,674.358L1925.681,675.853L1924.31,676.719L1922.939,677.112L1920.312,679.392L1918.028,687.238L1917.456,691.777L1918.028,695.762L1914.829,698.337L1912.431,700.364L1910.946,699.585L1909.346,698.961L1905.691,698.025L1903.864,697.479L1900.094,696.152L1894.269,694.512L1888.443,692.559L1884.902,691.542L1882.047,690.682L1879.876,689.352L1878.049,686.924L1876.221,687.942L1874.508,690.76L1871.766,692.403L1870.51,695.528L1869.368,697.947L1866.398,701.066L1865.141,702.39L1859.544,704.57L1858.174,705.27L1853.605,705.736L1852.005,706.67L1850.406,708.612L1849.949,710.632L1851.092,712.727L1852.919,716.912L1853.719,719.775L1854.975,725.416L1859.087,743.031L1857.717,746.019L1856.46,759.157L1856.803,761.518L1856.689,765.17L1856.803,767.905L1857.602,768.513L1858.745,769.5L1859.316,771.017L1859.202,773.443L1858.63,775.186L1857.717,778.667L1856.574,783.73L1855.318,785.692L1854.404,787.2L1853.719,788.255L1853.605,791.795L1853.148,794.127L1851.206,794.954L1849.15,796.307L1846.865,795.856L1844.695,796.081L1842.182,796.983L1837.613,798.034L1834.872,799.46L1833.615,800.511L1832.701,801.711L1832.587,802.91L1833.158,803.51L1835.785,803.959L1837.499,806.206L1837.841,808.6L1836.014,809.946L1835.1,808.451L1833.501,808.002L1830.645,805.832L1828.589,803.51L1827.104,800.961L1827.104,795.405L1826.876,794.578L1824.02,793.45L1823.221,791.795L1821.85,791.042L1819.908,791.494L1818.537,790.967L1817.395,790.063L1816.024,789.988L1814.882,791.418L1814.197,794.503L1812.255,799.61L1812.027,802.61L1811.227,807.029L1810.313,812.561L1809.628,813.756L1807.458,813.905L1806.658,814.278L1805.516,816.143L1804.145,816.442L1802.889,815.397L1800.947,814.278L1799.119,814.129L1797.52,815.248L1795.578,817.635L1794.436,819.572L1794.093,821.359L1793.751,823.591L1791.809,825.747L1789.981,826.862L1786.326,829.98L1785.069,831.315L1782.442,831.315L1779.587,831.167L1775.703,832.057L1769.306,832.502L1765.537,831.834L1760.854,832.427L1757.199,833.465L1756.742,835.021L1756.856,837.242L1757.541,838.721L1758.455,839.757L1759.94,842.786L1761.539,845.739L1763.938,847.583L1764.966,849.646L1765.08,851.561L1763.938,853.915L1762.11,857.003L1760.511,858.986L1759.369,858.912L1757.427,857.737L1756.171,856.341L1753.201,855.827L1745.89,856.709L1742.235,856.121L1740.522,854.945L1737.438,854.871L1732.64,853.327L1729.785,852.885L1728.414,851.855L1728.185,849.646L1726.815,848.099L1726.015,846.255L1724.302,843.894L1722.588,842.786L1720.989,842.269L1719.162,843.672L1717.334,844.927L1715.963,844.632L1715.278,845.001L1714.478,846.034L1711.394,848.246L1710.709,850.235L1709.452,854.357L1708.653,858.692L1707.853,860.233L1706.711,860.454L1705.455,861.774L1702.713,865.805L1700.429,869.537L1696.888,872.023L1695.289,874.287L1694.489,876.404L1691.976,879.32L1688.321,879.83L1685.465,880.705L1683.752,880.923L1682.495,882.088L1681.467,883.835L1681.125,884.563L1679.411,884.563L1677.812,886.09L1673.814,889.577L1670.616,890.231L1666.504,892.48L1662.963,894.293L1661.478,895.235L1661.021,896.322L1660.564,897.698L1658.736,897.987L1657.137,897.915L1653.368,901.098L1651.426,903.773L1644.116,909.474L1641.146,912.716L1640.346,916.89L1640.004,916.531L1637.376,920.196L1632.236,923.641L1621.271,924.359L1617.844,921.919L1616.587,923.641L1615.559,925.864L1612.704,926.653L1608.249,926.796L1605.736,928.3L1604.365,929.947L1598.197,930.52L1595.913,932.737L1592.029,933.524L1576.037,943.158L1572.611,947.217L1569.298,951.908L1566.899,954.322L1564.843,955.954L1563.016,956.663L1561.074,958.294L1559.246,958.507L1557.305,957.727L1555.134,958.01L1553.764,959.994L1554.906,962.543L1554.335,963.675L1550.108,965.019L1543.826,965.938L1541.199,967.634L1540.285,968.623L1538.914,969.117L1537.544,965.797L1537.087,961.411L1539.714,960.349L1541.998,959.782L1555.248,953.684L1553.649,949.137L1554.792,947.145L1557.761,943.942L1559.703,942.303L1558.561,941.733L1549.994,942.802L1544.968,942.731L1542.455,942.374L1543.255,939.594L1542.798,936.882L1542.227,935.81L1546.567,932.666L1548.623,931.879L1550.108,931.951L1549.994,930.019L1548.738,927.154L1550.108,923.426L1559.132,919.047L1561.302,915.092L1564.843,911.42L1571.468,902.183L1571.925,900.592L1573.753,896.249L1574.096,894.51L1571.126,891.972L1569.869,888.415L1560.96,881.943L1560.16,876.404L1559.361,876.623L1557.99,880.486L1556.848,881.797L1552.736,881.87L1550.679,880.413L1539.257,879.466L1536.401,881.943L1533.774,885.799L1531.261,888.56L1528.634,890.013L1526.464,892.553L1517.211,907.455L1513.671,908.609L1497.222,917.537L1488.998,921.058L1482.601,927.298L1480.431,931.021L1478.489,935.168L1477.347,941.448L1471.521,949.066L1469.465,950.701L1467.409,951.34L1464.782,951.127L1462.383,951.624L1458.386,950.914L1453.474,953.329L1447.991,955.387L1443.194,950.203L1439.767,948.852L1434.284,950.345L1431.657,952.69L1426.288,964.17L1424.346,970.741L1424.461,973.421L1427.545,981.588L1431.086,986.085L1438.967,991.275L1455.758,994.846L1459.642,993.586L1463.868,993.586L1468.323,996.945L1471.065,1002.535L1471.407,1006.372L1471.407,1007.697L1472.435,1008.811L1473.006,1010.692L1471.293,1012.292L1469.922,1013.127L1468.78,1018.965L1468.78,1025.483L1470.151,1027.63L1473.806,1030.674L1479.403,1033.163L1484.543,1033.715L1494.366,1032.541L1498.364,1028.599L1498.136,1026.938L1498.25,1024.721L1506.931,1018.965L1511.843,1013.823L1511.043,1012.501L1510.13,1011.597L1511.043,1011.04L1513.671,1010.692L1525.778,1005.396L1535.259,1009.717L1540.628,1014.727L1545.996,1015.63L1549.766,1018.131L1553.992,1020.353L1559.589,1020.492L1564.272,1020.977L1565.757,1018.895L1567.242,1017.576L1568.841,1017.854L1570.783,1020.492L1576.152,1022.572L1581.063,1022.434L1584.49,1021.671L1586.546,1022.642L1583.576,1026.037L1584.033,1031.504L1581.749,1033.232L1579.578,1035.994L1580.835,1037.789L1581.977,1038.616L1581.863,1040.823L1579.921,1042.063L1576.266,1045.368L1574.096,1045.299L1573.068,1044.68L1572.382,1043.441L1571.925,1041.581L1570.555,1040.34L1567.014,1039.858L1563.244,1040.271L1554.906,1045.162L1546.796,1049.082L1538.229,1052.173L1535.373,1054.095L1533.317,1054.644L1529.89,1053.134L1527.72,1053.272L1527.263,1054.233L1530.005,1056.976L1530.69,1059.1L1530.347,1060.676L1528.862,1061.429L1526.578,1060.196L1524.522,1061.908L1523.608,1064.781L1523.608,1071.544L1522.237,1073.044L1518.468,1073.863L1514.47,1076.044L1512.985,1075.021L1512.414,1073.863L1512.871,1070.725L1512.414,1069.223L1510.586,1069.291L1507.731,1070.179L1505.675,1072.294L1504.989,1073.522L1507.731,1077.474L1510.358,1077.883L1511.043,1078.768L1508.873,1080.741L1503.733,1083.597L1502.819,1086.043L1501.334,1088.351L1499.164,1090.182L1497.679,1092.081L1495.966,1093.097L1493.11,1094.249L1489.569,1098.852L1486.942,1103.245L1483.858,1105.405L1481.459,1112.753L1477.118,1116.656L1475.519,1122.972L1476.662,1126.862L1481.345,1126.795L1483.744,1128.203L1488.769,1133.291L1494.709,1136.568L1500.763,1138.439L1508.302,1143.177L1510.472,1145.111L1512.186,1149.175L1515.498,1160.738L1517.783,1166.438L1518.011,1169.482L1521.552,1175.101L1525.321,1184.73L1529.548,1193.083L1530.462,1199.58L1528.977,1202.594L1529.091,1206.456L1533.317,1210.053L1543.026,1214.168L1544.511,1215.343L1546.453,1217.365L1546.453,1223.555L1547.938,1225.573L1549.309,1226.743L1555.134,1229.409L1557.533,1231.553L1560.16,1235.058L1560.846,1238.171L1561.188,1242.382L1557.876,1242.511L1555.248,1242.058L1544.854,1236.615L1542.113,1236.42L1538.343,1237.199L1532.86,1236.161L1527.035,1230.124L1522.923,1228.304L1518.468,1227.329L1507.845,1232.592L1505.104,1232.202L1504.304,1232.787L1503.048,1233.695L1508.073,1234.799L1512.985,1233.111L1517.783,1230.579L1524.636,1231.943L1525.778,1234.215L1526.921,1238.041L1531.718,1240.633L1535.488,1241.799L1540.171,1245.165L1544.854,1250.53L1554.677,1256.661L1558.675,1262.459L1560.16,1266.254L1561.531,1271.587L1558.104,1273.321L1555.134,1273.577L1550.451,1274.411L1547.024,1276.271L1543.483,1279.604L1533.66,1284.853L1531.718,1288.114L1530.462,1290.924L1528.063,1292.329L1521.895,1290.988L1516.183,1291.116L1509.787,1294.945L1508.188,1296.476L1509.216,1296.221L1510.244,1295.71L1513.099,1296.284L1517.668,1294.243L1522.009,1300.49L1530.69,1299.471L1538.8,1294.243L1541.884,1294.18L1544.511,1295.009L1547.367,1297.049L1555.248,1306.09L1559.475,1307.108L1563.701,1309.205L1565.986,1309.459L1568.042,1310.094L1562.445,1313.396L1555.134,1320.56L1551.936,1322.27L1549.766,1324.169L1555.591,1323.219L1559.817,1319.8L1561.874,1318.976L1563.587,1319.737L1564.386,1323.979L1562.787,1336.929L1560.731,1337.118L1558.789,1333.585L1556.505,1332.512L1554.449,1333.206L1550.679,1333.206L1549.195,1334.784L1547.938,1337.055L1550.223,1337.496L1554.792,1341.403L1555.248,1343.481L1553.992,1344.866L1550.794,1344.299L1554.677,1347.193L1553.649,1350.211L1552.393,1351.404L1550.108,1352.158L1548.738,1354.795L1550.794,1359.123L1552.85,1364.698L1553.078,1367.389L1549.88,1366.263L1544.968,1369.64L1542.341,1369.89L1540.513,1365.449L1538.343,1366.138L1536.858,1367.452L1534.802,1372.265L1532.403,1376.574L1530.233,1377.759L1527.72,1377.447L1525.664,1377.572L1526.235,1378.695L1528.406,1380.129L1528.406,1381.812L1523.722,1387.043L1522.923,1389.097L1523.037,1390.838L1520.638,1392.952L1521.895,1396.492L1521.209,1398.975L1519.039,1402.324L1516.869,1404.555L1514.127,1408.147L1510.815,1410.19L1506.36,1417.731L1505.104,1421.497L1504.761,1425.382L1503.276,1426.676L1500.992,1428.401L1498.25,1427.539L1498.136,1424.95L1496.994,1424.704L1496.308,1423.039L1496.08,1420.88L1496.423,1419.151L1495.28,1419.645L1494.595,1421.682L1492.767,1423.347L1490.94,1422.669L1488.884,1421.311L1488.998,1423.285L1490.026,1425.197L1490.483,1427.169L1493.224,1427.539L1495.166,1429.817L1496.651,1433.202L1496.879,1434.494L1498.022,1436.031L1498.136,1437.322L1495.509,1438.551L1492.196,1440.763L1488.198,1444.63L1484.886,1447.205L1481.916,1447.205L1480.203,1446.899L1477.575,1445.427L1474.606,1444.814L1478.603,1450.025L1480.774,1450.944L1483.515,1450.76L1486.142,1448.799L1489.912,1448.983L1490.825,1451.985L1489.797,1455.352L1487.741,1459.755L1487.399,1463.544L1489.912,1468.915L1490.026,1470.561L1488.998,1471.354L1486.028,1469.951L1483.629,1468.183L1481.116,1468.61L1478.603,1467.878L1475.976,1468.488L1474.834,1469.769L1475.634,1471.841L1477.918,1473.548L1479.289,1476.167L1477.69,1477.08L1471.065,1476.471L1469.465,1476.958L1467.524,1479.819L1468.78,1484.136L1467.295,1486.749L1464.554,1487.417L1460.898,1489.542L1458.728,1490.028L1458.842,1490.938L1460.442,1491.909L1461.355,1493.183L1459.299,1497.547L1456.329,1498.941L1451.532,1498.214L1447.877,1499.243L1444.679,1497.365L1441.252,1497.305L1438.967,1499.667L1438.739,1502.392L1436.454,1502.634L1435.198,1502.452L1433.484,1502.634L1433.713,1504.086L1434.627,1505.356L1439.31,1505.961L1440.11,1507.775L1440.338,1510.615L1435.426,1515.445L1433.37,1518.703L1430.286,1518.642L1428.002,1521.235L1426.745,1524.849L1425.146,1524.126L1421.605,1524.668L1420.463,1526.354L1421.377,1527.077L1421.491,1528.28L1420.006,1532.31L1418.407,1533.392L1417.721,1531.769L1417.264,1529.243L1416.008,1529.062L1413.952,1531.408L1411.439,1533.091L1409.383,1533.753L1407.784,1532.19L1403.9,1531.408L1402.415,1538.138L1399.103,1540.539L1397.618,1541.319L1394.991,1541.559L1396.704,1542.459L1397.275,1544.198L1396.247,1545.876L1393.62,1546.236L1392.135,1547.555L1391.564,1553.542L1389.965,1555.636L1385.967,1555.756L1382.997,1554.38L1382.083,1555.517L1381.626,1556.534L1380.027,1557.61L1377.057,1557.909L1370.318,1560.598L1367.348,1559.822L1363.693,1558.806L1361.066,1559.822L1360.266,1561.853L1359.124,1563.406L1355.469,1563.406L1352.499,1561.495L1349.529,1560.061L1346.216,1561.256L1343.703,1563.764L1340.619,1564.6L1340.048,1566.152L1338.678,1566.928L1335.365,1566.629L1334.109,1562.749L1332.281,1562.211L1330.453,1564.122L1329.768,1565.674L1328.854,1566.808L1329.197,1569.97L1327.369,1570.03L1324.971,1568.121L1322.343,1567.763L1320.059,1569.552L1318.802,1569.075L1317.546,1568.717L1315.49,1568.717L1314.69,1569.195L1313.205,1569.493L1312.177,1570.447L1312.063,1570.566L1309.436,1569.91L1306.123,1567.286L1303.839,1562.928L1300.869,1560.598L1299.498,1558.507L1299.041,1554.799L1298.47,1553.064L1298.699,1551.088L1299.498,1549.352L1296.3,1550.25L1294.016,1551.867L1294.472,1553.902L1293.901,1555.816L1290.36,1556.773L1290.589,1557.61L1290.817,1558.447L1293.559,1561.017L1294.13,1563.167L1295.272,1564.361L1297.442,1567.703L1297.328,1574.261L1298.585,1576.108L1298.128,1577.894L1297.328,1580.394L1297.214,1580.394L1296.528,1579.68L1295.5,1579.799L1295.158,1580.632L1295.044,1581.406L1294.929,1581.465L1293.102,1582L1291.503,1582.476L1290.246,1583.13L1288.304,1585.033L1284.535,1585.509L1282.707,1580.989L1280.08,1584.022L1279.395,1590.202L1278.367,1591.271L1276.768,1592.161L1273.798,1589.964L1271.171,1591.449L1269.114,1592.933L1268.201,1594.238L1266.716,1595.721L1263.86,1594.298L1261.461,1592.161L1262.033,1590.558L1261.804,1589.549L1260.662,1588.717L1259.52,1588.836L1260.091,1590.915L1260.548,1594.891L1259.405,1596.018L1257.806,1596.908L1254.265,1596.196L1251.866,1594.713L1248.897,1593.467L1246.384,1593.23L1245.813,1595.721L1244.099,1597.797L1242.614,1598.034L1241.015,1597.678L1238.959,1599.872L1238.045,1601.472L1235.532,1603.189L1228.907,1603.959L1226.508,1605.676L1223.424,1605.38L1221.026,1605.795L1219.541,1605.676L1218.398,1604.788L1216.914,1604.788L1216.342,1607.57L1212.573,1608.753L1209.146,1609.049L1205.377,1612.715L1202.635,1614.902L1200.694,1615.138L1199.209,1614.37L1198.409,1611.06L1197.724,1610.705L1197.267,1613.779L1196.581,1616.32L1195.211,1617.737L1190.87,1620.925L1189.614,1624.111L1190.413,1627L1196.239,1627.707L1197.038,1629.298L1196.467,1630.594L1194.982,1631.713L1194.64,1633.362L1200.922,1638.54L1201.15,1640.539L1200.122,1641.656L1198.98,1644.066L1195.668,1646.121L1188.586,1647.178L1182.76,1646.121L1180.933,1643.772L1181.047,1642.127L1182.532,1642.597L1184.131,1642.42L1183.674,1640.892L1182.989,1640.01L1180.247,1638.658L1178.077,1635.01L1178.534,1632.008L1177.277,1629.652L1176.021,1627.648L1174.65,1626.469L1173.965,1624.996L1175.336,1620.394L1174.536,1617.737L1177.049,1614.429L1177.734,1610.705L1182.189,1609.404L1182.532,1605.854L1179.219,1605.735L1177.049,1603.13L1176.478,1604.196L1174.764,1604.314L1171.795,1599.338L1170.881,1598.686L1169.51,1598.568L1170.195,1603.9L1166.769,1605.854L1163.913,1606.742L1159.915,1607.097L1157.631,1607.688L1155.575,1607.215L1156.032,1605.617L1157.174,1603.663L1156.146,1602.064L1153.861,1600.879L1150.435,1600.938L1148.036,1600.583L1145.751,1600.701L1144.837,1599.99L1142.667,1597.5L1140.725,1595.959L1139.926,1594.416L1140.725,1592.577L1140.04,1591.508L1136.385,1591.389L1136.499,1593.942L1136.842,1597.026L1137.87,1599.338L1137.184,1600.642L1135.357,1601.531L1133.415,1599.042L1132.501,1598.449L1131.473,1598.568L1130.788,1600.998L1129.074,1603.189L1125.876,1602.952L1123.363,1604.314ZM1212.916,1656.33L1214.401,1657.854L1215.429,1660.021L1216.342,1664.003L1216.799,1667.689L1213.601,1670.028L1210.745,1670.964L1205.034,1679.958L1203.778,1682.759L1202.864,1683.983L1202.521,1685.208L1202.635,1686.432L1201.15,1690.744L1199.78,1696.042L1198.98,1698.194L1197.381,1699.823L1195.211,1700.695L1193.954,1700.811L1192.698,1701.276L1189.614,1704.124L1186.187,1706.332L1186.758,1707.319L1186.758,1708.248L1185.273,1709.293L1183.674,1709.119L1178.877,1709.932L1177.049,1711.557L1175.221,1714.516L1174.536,1714.922L1171.68,1715.618L1169.396,1715.908L1165.626,1713.82L1163.799,1713.182L1158.773,1712.311L1153.861,1710.919L1150.435,1709.293L1143.467,1705.286L1142.667,1698.136L1141.411,1694.237L1141.411,1692.84L1141.868,1680.833L1142.325,1679.55L1143.238,1678.382L1146.322,1675.696L1149.863,1673.535L1154.889,1669.093L1158.659,1667.046L1161.743,1664.12L1159.915,1664.237L1158.545,1663.886L1159.915,1661.368L1161.286,1660.021L1162.885,1659.319L1166.198,1659.846L1169.282,1659.319L1171.452,1657.092L1173.622,1656.623L1181.732,1657.326L1187.329,1656.33L1190.071,1654.278L1191.441,1654.161L1195.553,1654.747L1197.153,1656.916L1197.038,1655.451L1197.153,1654.102L1197.952,1654.22L1203.321,1656.858L1203.321,1653.633L1203.663,1652.753L1205.377,1651.404L1206.176,1651.463L1208.347,1654.044L1210.289,1655.568Z" fill="none" stroke="#333" stroke-width="0.7" stroke-linejoin="round"/>
    <path d="M1444.336,1501.908L1443.194,1503.965L1441.366,1503.663L1441.366,1502.15L1440.909,1501.726L1441.48,1500.333L1441.823,1499.91L1443.879,1501.121ZM1561.074,1250.271L1558.447,1251.305L1550.223,1248.139L1544.397,1244.582L1540.856,1240.374L1540.399,1238.56L1544.397,1238.884L1548.395,1240.439L1549.309,1242.77L1550.908,1243.482L1551.936,1244.841L1559.361,1248.01L1560.503,1248.979ZM1574.781,1306.663L1574.324,1307.426L1570.44,1305.327L1566.214,1304.882L1564.729,1303.037L1564.501,1300.108L1568.955,1300.235L1574.438,1302.846L1575.695,1304.182ZM1570.897,1317.075L1570.783,1317.772L1568.042,1315.426L1566.785,1314.982L1567.356,1313.65L1569.184,1313.332L1570.669,1316.314ZM1578.208,1309.269L1577.979,1310.984L1577.065,1310.73L1575.923,1307.743L1576.609,1306.981L1578.208,1307.171ZM1496.308,1468.244L1493.91,1469.89L1492.425,1469.098L1492.425,1466.901L1493.224,1464.948L1492.31,1463.544L1493.11,1461.833L1494.938,1461.345L1495.509,1462.383L1496.537,1462.994L1496.879,1463.544L1496.879,1464.643L1495.851,1466.474L1496.651,1467.451ZM1196.924,1619.036L1198.066,1620.217L1201.265,1619.39L1201.836,1620.866L1201.722,1621.574L1200.694,1623.285L1198.066,1621.987L1195.439,1622.282L1193.612,1622.164L1193.041,1621.338L1194.525,1619.686ZM1541.656,1374.826L1538.914,1375.637L1537.886,1375.637L1537.886,1373.015L1540.171,1370.578L1541.085,1371.39L1541.656,1372.702ZM1297.442,1560.479L1297.785,1562.092L1295.272,1559.642L1294.587,1559.523L1293.33,1558.626L1292.645,1557.132L1294.587,1557.072L1296.414,1558.865ZM1273.227,1601.708L1272.541,1602.36L1271.627,1601.175L1271.399,1599.397L1270.714,1598.449L1272.313,1597.204L1272.998,1595.899L1274.711,1596.137L1275.511,1596.552L1273.912,1597.916L1273.569,1598.508ZM1268.543,1600.405L1265.459,1601.116L1264.774,1600.998L1265.916,1599.22L1268.658,1597.975ZM1120.393,1604.907L1118.337,1603.13L1114.911,1600.227L1113.54,1599.872L1109.77,1601.294L1104.402,1601.827L1103.26,1600.346L1100.632,1601.472L1098.119,1597.975L1095.15,1597.797L1091.494,1595.128L1090.124,1593.764L1089.667,1591.746L1088.524,1590.677L1087.154,1590.855L1085.555,1589.786L1082.927,1588.717L1080.871,1588.064L1079.843,1588.598L1078.815,1588.836L1078.587,1587.47L1078.701,1583.428L1078.473,1579.799L1077.902,1578.192L1076.531,1577.001L1075.274,1576.406L1074.817,1574.559L1075.274,1570.924L1076.188,1568.419L1077.902,1568.002L1080.072,1566.212L1081.1,1563.704L1082.471,1561.375L1077.559,1558.088L1074.932,1556.892L1072.076,1557.431L1068.535,1558.447L1066.593,1558.686L1065.679,1558.268L1063.623,1555.278L1062.481,1554.799L1059.968,1554.619L1057.798,1554.619L1056.541,1555.936L1054.714,1556.354L1052.772,1556.414L1050.83,1554.799L1047.975,1552.705L1043.406,1551.268L1042.834,1549.531L1041.692,1547.495L1039.979,1545.637L1037.123,1543.118L1034.724,1541.859L1033.582,1542.639L1031.983,1544.078L1025.929,1547.075L1023.188,1548.214L1021.703,1549.052L1020.561,1550.31L1020.104,1553.363L1019.533,1556.833L1017.819,1558.566L1016.106,1559.881L1014.392,1560.001L1012.679,1559.941L1010.966,1560.479L1006.054,1563.943L1003.769,1563.645L1001.828,1561.734L1001.028,1560.3L998.858,1560.658L996.002,1562.271L994.746,1565.257L994.06,1568.002L993.375,1569.195L992.461,1569.552L991.547,1569.672L982.752,1561.674L982.295,1561.256L980.696,1562.928L979.211,1567.107L978.183,1567.942L977.498,1567.584L973.842,1562.211L972.929,1561.674L972.129,1561.853L970.987,1563.645L968.702,1566.212L966.989,1567.763L966.875,1569.493L964.933,1571.043L962.763,1572.593L961.963,1572.712L960.478,1572.116L958.536,1570.089L957.166,1567.942L953.739,1565.854L949.855,1564.063L947.228,1562.689L945.743,1562.331L944.372,1562.928L943.687,1563.824L942.773,1565.913L940.489,1569.374L938.318,1572.116L936.377,1573.904L934.892,1575.096L933.749,1573.964L931.579,1573.07L929.066,1573.01L925.868,1574.798L923.241,1571.282L922.555,1571.103L921.527,1571.401L920.385,1572.235L919.585,1574.202L918.786,1576.882L917.187,1578.609L915.702,1579.382L916.159,1580.93L916.958,1582.536L916.844,1583.963L917.415,1586.222L918.215,1588.48L921.299,1592.102L922.441,1594.06L922.67,1595.662L922.784,1601.59L922.67,1604.018L922.098,1608.753L922.098,1611.474L923.355,1612.715L924.611,1614.193L924.497,1614.961L923.926,1615.256L922.213,1616.91L921.527,1617.088L920.271,1616.438L918.786,1615.906L917.644,1615.256L916.273,1614.252L913.189,1614.37L908.049,1615.965L907.021,1615.493L906.221,1614.607L905.878,1612.715L906.107,1610.528L905.65,1609.167L904.622,1608.339L905.307,1604.433L903.48,1602.893L903.822,1602.419L903.137,1598.153L903.251,1597.145L902.909,1596.789L901.652,1596.433L899.71,1597.085L893.885,1599.872L888.859,1605.025L886.574,1606.15L884.29,1606.623L881.549,1605.735L878.464,1605.143L874.238,1606.446L872.068,1605.854L871.04,1604.788L870.24,1603.189L870.697,1601.175L870.469,1599.694L868.641,1598.923L866.699,1598.271L865.557,1596.374L864.986,1594.238L865.443,1591.449L865.785,1588.48L864.757,1587.113L861.788,1586.4L854.477,1585.033L847.966,1584.32L845.225,1584.676L843.055,1584.32L841.798,1583.785L841.113,1582.833L841.113,1581.525L842.141,1578.43L843.397,1575.393L846.367,1571.043L846.596,1568.002L846.367,1564.481L847.852,1559.762L850.479,1556.235L851.736,1555.158L851.393,1553.602L850.365,1552.166L848.88,1551.388L846.481,1550.43L842.598,1550.19L837.458,1549.232L831.289,1547.135L831.975,1543.118L831.975,1540.599L831.175,1538.558L829.919,1537.117L829.233,1535.795L830.376,1532.19L828.891,1528.28L827.292,1526.655L825.578,1524.668L825.35,1522.44L826.149,1520.391L830.376,1515.988L830.376,1514.963L829.348,1515.023L828.205,1515.144L822.494,1516.712L821.809,1515.747L819.753,1515.144L815.526,1515.023L810.615,1515.325L804.447,1516.893L798.735,1519.607L796.222,1521.536L793.938,1522.681L792.224,1523.102L790.054,1522.259L790.283,1519.547L794.166,1514.6L794.623,1511.219L793.481,1508.259L793.367,1505.961L791.996,1504.449L790.054,1503.723L789.026,1502.029L789.026,1497.184L790.74,1492.151L793.481,1490.574L795.194,1489.785L795.651,1488.814L794.737,1485.352L794.852,1483.103L796.565,1478.724L798.164,1475.436L801.362,1475.984L802.733,1475.193L804.218,1474.035L805.931,1472.024L807.074,1469.708L808.444,1464.215L809.358,1463.422L813.356,1464.338L814.498,1463.666L816.669,1460.489L818.725,1456.576L821.695,1455.352L823.751,1455.23L824.779,1453.944L824.664,1452.046L822.723,1448.983L821.809,1446.592L822.037,1445.12L825.007,1444.2L825.692,1442.42L825.236,1438.551L826.492,1433.941L827.177,1428.463L827.406,1424.395L827.406,1421.311L827.063,1418.04L826.606,1412.107L825.35,1406.909L825.578,1404.927L825.35,1398.603L824.55,1393.262L822.951,1392.268L819.981,1390.527L818.268,1390.216L816.897,1390.838L816.326,1392.703L815.069,1394.443L813.356,1394.07L812.671,1392.268L811.528,1389.968L808.102,1379.069L807.645,1375.949L807.074,1372.765L805.931,1371.203L804.675,1370.328L801.819,1366.638L800.334,1365.074L799.649,1364.823L798.05,1365.074L796.565,1365.074L795.309,1363.258L794.28,1361.003L793.138,1359.875L791.196,1359.311L789.255,1359.499L788.112,1361.442L787.313,1362.569L785.942,1365.136L783.543,1368.765L782.401,1370.078L781.373,1369.39L776.804,1365.637L774.634,1364.636L771.55,1365.762L766.866,1364.886L765.039,1364.698L761.155,1361.692L759.556,1361.317L754.073,1363.258L752.817,1364.636L752.131,1364.698L750.646,1364.01L749.39,1363.07L749.276,1362.507L750.875,1361.003L750.989,1360.001L750.875,1358.998L753.045,1356.05L758.871,1350.336L757.957,1347.948L755.558,1343.292L755.33,1340.962L754.302,1339.954L751.446,1340.836L745.621,1345.054L744.821,1344.614L744.935,1343.103L744.364,1338.82L746.192,1337.559L749.047,1335.92L751.218,1334.153L751.789,1332.764L751.218,1332.322L747.905,1332.891L746.649,1331.88L744.593,1327.963L742.993,1326.383L741.623,1325.561L736.825,1327.584L731.228,1330.428L725.06,1334.279L725.174,1336.298L724.375,1336.802L723.232,1338.064L722.09,1339.828L721.062,1340.458L719.92,1340.521L717.635,1340.017L713.295,1338L708.726,1336.361L707.698,1336.55L701.415,1335.415L701.187,1334.468L700.273,1332.638L698.446,1330.996L696.732,1330.428L691.821,1333.964L686.338,1336.55L683.139,1339.639L680.512,1342.663L677.542,1343.292L677.428,1345.18L676.172,1346.879L673.887,1348.954L669.432,1351.593L666.348,1353.037L656.753,1354.356L653.327,1355.234L651.842,1356.615L650.243,1360.189L649.1,1363.446L646.359,1366.138L641.561,1369.703L635.85,1372.64L634.251,1374.576L634.023,1375.7L634.708,1376.137L635.393,1377.01L635.393,1378.32L634.594,1379.755L630.939,1382.248L628.768,1383.432L626.712,1384.18L624.428,1384.366L622.143,1383.993L621.458,1383.619L620.658,1384.117L618.602,1384.678L616.775,1384.802L612.891,1387.604L610.721,1387.604L607.979,1386.981L604.438,1386.546L601.925,1386.546L601.811,1385.051L602.154,1380.69L601.012,1379.63L597.471,1378.57L593.473,1377.135L591.531,1375.575L590.503,1375.076L589.018,1375.325L586.619,1376.948L584.335,1378.819L582.507,1379.007L580.679,1378.071L578.852,1376.948L572.798,1375.325L570.057,1375.076L565.259,1375.388L561.261,1375.013L560.69,1374.514L560.69,1373.639L561.261,1371.828L561.604,1370.14L561.147,1369.14L557.149,1367.889L553.38,1367.014L549.496,1366.701L546.869,1367.327L544.242,1368.702L542.186,1371.14L539.102,1372.203L535.446,1374.014L533.619,1375.762L530.877,1379.381L526.994,1383.868L523.453,1388.288L521.625,1392.517L519.226,1395.188L516.713,1397.113L514.886,1402.386L513.058,1400.712L510.888,1398.354L510.431,1395.064L512.944,1386.234L513.515,1382.622L512.944,1381.251L512.144,1377.634L510.659,1376.449L506.319,1374.576L504.948,1374.576L503.463,1375.825L502.093,1376.698L500.151,1377.51L495.353,1379.007L491.127,1379.755L490.099,1380.316L489.756,1381.313L490.099,1382.56L487.358,1382.124L484.502,1381.812L482.217,1381.999L476.62,1384.304L474.679,1384.553L472.508,1384.304L469.653,1384.242L464.17,1384.304L459.372,1383.681L455.603,1380.441L452.862,1379.069L449.892,1377.946L447.036,1377.135L446.008,1375.388L445.094,1374.514L442.695,1374.201L440.754,1374.826L439.611,1379.194L438.583,1380.067L436.185,1380.441L433.557,1379.381L430.131,1377.135L428.76,1374.639L427.504,1373.764L425.676,1374.888L425.562,1378.071L425.219,1380.254L423.049,1381.126L421.678,1380.503L420.65,1378.258L418.137,1373.015L415.51,1369.953L412.997,1367.952L404.43,1367.952L398.148,1367.389L395.292,1366.513L394.264,1364.51L395.292,1360.439L396.549,1357.305L396.549,1356.552L395.406,1356.175L393.693,1355.924L386.839,1357.932L385.012,1357.744L383.87,1357.054L382.385,1356.426L381.242,1355.485L380.329,1354.105L374.503,1350.776L372.79,1348.891L369.591,1346.564L366.964,1344.992L365.251,1340.458L363.766,1336.109L362.966,1333.837L360.453,1332.575L357.712,1331.628L353.029,1333.522L349.259,1334.973L346.518,1335.163L342.52,1330.68L339.207,1325.814L335.438,1321.637L332.925,1319.483L328.47,1319.293L323.33,1316.948L316.591,1311.555L311.679,1307.489L303.227,1302.973L301.285,1301.127L300.599,1299.535L299.457,1296.348L297.63,1293.35L291.69,1292.074L284.951,1291.116L277.754,1292.967L272.614,1301.955L270.101,1303.864L268.045,1303.991L266.332,1301.7L264.847,1299.344L264.047,1296.667L260.506,1294.69L256.508,1292.137L254.452,1290.094L252.168,1288.88L249.998,1288.305L245.771,1286.643L241.088,1284.725L238.918,1284.469L238.689,1283.125L239.375,1280.18L238.918,1277.425L237.547,1276.271L235.377,1276.592L230.465,1272.615L230.237,1272.615L230.122,1272.422L228.752,1271.331L226.239,1269.725L222.127,1269.789L219.043,1270.432L216.758,1268.761L213.446,1266.126L212.76,1265.547L211.846,1264.582L208.42,1259.561L204.422,1253.564L202.48,1252.725L201.452,1253.177L200.195,1256.338L199.396,1256.016L197.911,1256.209L196.198,1257.37L194.484,1257.628L193.342,1257.305L192.885,1256.532L193.456,1252.338L192.428,1250.982L193.342,1248.074L194.827,1245.553L193.228,1243.676L191.4,1241.022L191.172,1238.56L192.2,1235.512L192.657,1232.852L192.314,1231.943L190.829,1230.449L185.118,1223.23L184.775,1222.448L183.747,1220.038L183.404,1216.387L182.605,1213.776L181.691,1211.817L181.805,1210.837L182.491,1210.38L186.032,1209.857L189.344,1209.596L191.629,1208.876L192.771,1210.38L193.228,1212.601L193.799,1213.776L195.969,1215.865L198.482,1217.887L200.995,1217.626L203.165,1216.778L205.107,1213.45L206.478,1212.666L208.077,1212.536L208.077,1212.274L207.963,1210.118L208.534,1204.886L208.305,1202.791L207.62,1200.891L207.734,1198.793L207.506,1195.709L205.678,1193.608L204.536,1192.82L204.308,1191.703L204.993,1189.599L205.336,1187.165L204.65,1185.125L203.165,1184.203L201.452,1182.622L199.396,1180.578L198.482,1178.995L196.769,1177.346L194.827,1174.705L194.37,1169.019L194.256,1162.926L193.57,1159.941L192.428,1155.094L192.542,1153.499L193.228,1152.302L198.939,1148.376L200.195,1146.91L200.31,1145.711L200.081,1144.044L199.053,1142.11L196.769,1140.642L193.57,1138.238L190.601,1135.766L185.689,1134.228L179.749,1132.354L178.264,1130.48L176.894,1126.058L174.381,1119.211L171.753,1111.878L169.697,1107.429L169.583,1105.203L170.84,1099.663L170.725,1098.513L169.697,1098.107L167.641,1098.784L166.042,1099.663L164.671,1099.257L163.301,1098.31L163.072,1097.972L162.958,1097.837L160.559,1098.446L155.762,1098.784L154.163,1098.716L151.764,1098.649L146.967,1097.363L140.456,1095.671L133.831,1093.301L130.175,1091.403L128.919,1090.725L125.949,1088.758L123.779,1087.061L123.436,1082.577L121.837,1082.917L118.182,1084.548L113.841,1085.567L111.557,1085.567L110.529,1084.888L109.158,1080.129L108.13,1078.836L106.188,1078.291L104.132,1077.474L103.104,1076.248L102.876,1074.681L103.789,1072.908L104.932,1071.544L105.046,1063.14L104.361,1060.128L103.789,1057.661L102.19,1054.507L100.82,1052.585L98.649,1050.8L95.337,1048.944L92.367,1048.257L88.712,1049.563L87.569,1049.082L86.085,1043.303L85.171,1042.132L78.774,1039.72L75.919,1039.168L72.492,1039.927L70.664,1040.547L69.179,1039.513L66.78,1038.203L64.382,1037.237L61.526,1037.237L59.584,1037.789L59.127,1037.444L58.214,1036.409L54.33,1033.232L54.216,1032.403L60.155,1029.291L63.696,1028.045L65.524,1027.145L65.867,1027.284L66.78,1028.807L69.065,1029.706L70.664,1029.498L71.578,1028.737L74.434,1027.007L76.718,1024.998L77.975,1023.335L77.289,1020.7L73.748,1017.576L71.464,1015.839L70.778,1014.727L71.35,1011.249L72.149,1007.836L71.692,1006.512L71.007,1005.396L70.664,1001.697L69.179,997.155L67.466,994.496L67.009,990.924L66.895,987.629L68.951,982.362L68.151,980.111L66.095,978.071L58.785,974.408L51.246,972.011L48.39,972.081L46.563,971.94L44.507,974.056L43.25,976.874L41.537,977.156L38.338,975.958L36.168,974.126L34.683,970.388L33.427,965.585L32.741,964.1L33.084,962.826L33.884,961.623L35.94,960.561L36.282,959.428L35.94,958.081L34.341,956.309L32.627,953.896L30,948.781L30.457,945.936L30.914,941.876L30.8,939.736L33.427,939.237L36.854,938.095L38.453,936.31L39.481,934.453L39.709,933.309L38.681,928.802L37.31,926.868L37.196,925.291L37.882,924.144L38.795,922.063L40.509,917.897L42.222,915.236L43.136,914.588L45.192,913.94L50.104,913.221L55.472,911.348L61.869,905.722L64.039,904.134L66.78,903.339L68.837,903.411L69.179,902.689L67.809,899.218L68.151,897.987L68.951,896.974L69.865,896.539L74.319,898.349L77.746,898.132L81.858,897.046L90.654,890.884L91.796,891.029L92.71,891.827L93.738,895.525L94.994,903.339L95.679,904.35L101.848,904.423L106.074,901.604L107.902,900.954L110.871,901.388L112.471,900.086L114.07,899.145L116.012,902.4L118.524,900.809L121.152,898.349L122.408,895.742L124.236,892.988L125.606,889.432L126.178,886.09L126.863,884.563L128.348,882.962L132.003,876.039L134.744,874.287L137.143,873.63L143.426,874.871L146.624,874.725L156.105,875.601L160.445,874.287L163.529,872.973L167.984,873.192L173.238,872.096L180.32,863.46L180.435,861.627L180.891,859.646L183.404,857.664L186.603,855.9L192.885,851.634L205.793,844.927L210.362,842.195L212.303,842.269L217.101,840.57L225.439,837.242L227.724,833.095L229.894,832.279L239.717,831.538L240.289,831.093L240.631,830.351L240.06,827.382L239.489,824.781L240.174,824.037L240.974,822.847L240.86,821.21L239.375,815.845L238.461,810.694L237.89,806.131L238.004,804.334L239.26,801.411L240.745,798.71L246.228,796.156L249.883,795.405L250.112,793.751L247.142,792.698L244.972,791.042L244.629,790.063L244.743,789.009L245.2,788.029L248.855,786.144L252.396,784.333L256.623,785.465L257.537,784.711L257.765,782.899L256.851,781.011L255.937,777.986L253.996,776.397L253.881,774.504L255.138,771.32L253.424,765.322L251.597,759.995L248.513,750.916L246.457,748.316L245.314,744.104L244.058,741.881L244.172,738.581L244.401,736.276L244.058,731.737L243.487,726.728L244.058,721.708L245.2,718.382L244.858,717.066L245.543,716.137L247.256,715.827L248.056,714.432L247.256,713.037L244.286,711.951L240.86,710.243L236.862,710.476L232.75,710.787L230.694,709.467L228.866,707.913L228.752,706.903L231.265,704.18L234.691,701.377L240.06,700.131L246,698.259L248.97,696.933L252.967,695.996L257.537,695.606L259.935,695.84L265.761,694.044L275.127,690.604L283.694,687.708L286.435,685.984L288.606,687.708L289.634,691.542L292.033,693.497L294.545,694.434L295.916,694.434L300.142,692.872L304.711,691.855L306.539,692.403L308.824,694.356L311.451,696.152L312.821,695.996L313.964,694.669L315.22,691.933L316.02,688.491L316.134,684.808L315.677,682.533L314.763,681.748L310.651,680.413L306.653,678.213L306.196,676.247L306.311,674.83L307.339,671.364L309.852,664.971L312.479,656.105L313.85,649.117L318.19,638.678L321.617,627.714L327.214,611.864L328.128,608.714L328.585,603.698L328.927,601.673L330.869,600.538L334.067,601.592L342.063,605.236L348.117,608.31L350.63,609.36L354.399,610.411L360.225,611.702L363.652,611.299L366.507,610.572L370.505,610.491L376.559,611.46L378.501,611.46L380.9,611.622L382.499,613.155L383.413,616.621L384.669,618.152L386.954,617.588L391.865,614.526L394.949,612.106L398.833,608.633L402.717,608.148L406.829,607.34L408.314,605.641L409.799,601.511L412.312,598.429L412.654,594.531L411.855,591.766L410.027,587.205L410.141,584.186L409.228,575.355L408.085,567.315L409.342,560.896L411.284,553.634L412.083,551.401L413.454,548.504L415.281,545.023L417.794,543.945L424.991,543.198L431.616,541.704L435.042,540.208L438.469,539.294L440.639,538.13L444.295,533.051L446.008,530.048L447.264,522.191L446.351,518.421L447.036,515.064L448.864,513.048L451.262,511.03L452.976,510.694L456.402,510.105L462.228,510.357L465.198,511.282L468.168,511.703L469.995,511.03L471.252,509.516L473.194,509.011L476.163,508.337L479.133,507.411L480.732,507.579L481.075,509.852L480.847,511.535L481.418,513.888L482.56,515.484L482.217,517.079L480.504,518.085L478.905,519.427L478.448,521.186L480.618,523.363L481.304,525.538L484.845,526.792L487.472,528.212L488.5,529.548L488.271,531.133L487.015,532.801L485.758,534.551L485.644,535.633L485.987,536.882L488.614,537.714L491.698,539.044L496.496,540.873L499.808,544.111L503.006,545.023L504.606,548.256L504.948,552.89L508.261,555.204L513.287,558.505L515.8,559.082L517.399,560.978L519.912,563.202L522.082,563.943L524.595,564.272L528.821,562.131L533.619,561.967L536.132,563.12L538.645,567.643L540.358,569.04L541.386,570.353L543.099,571.502L544.699,571.666L547.211,570.682L548.811,568.711L550.981,569.122L551.78,570.436L552.237,572.651L553.38,575.355L556.121,577.402L560.005,578.63L560.576,579.611L561.147,582.39L562.175,584.268L563.546,586.715L564.916,591.277L565.259,594.937L565.83,596.968L567.658,600.295L570.513,605.641L572.798,610.087L575.425,610.976L577.71,612.429L578.966,615.735L581.365,621.933L581.707,626.029L581.936,629.077L582.736,630.439L582.85,632.121L580.908,638.598L579.195,641.551L578.966,644.022L580.108,648.321L581.707,651.581L581.936,654.757L580.565,657.056L578.281,659.988L577.138,661.65L575.311,663.074L572.569,668.683L571.427,674.83L571.085,677.977L572.113,680.256L573.826,682.768L574.283,684.965L577.138,689.821L577.938,692.872L579.08,692.95L580.337,691.933L583.421,691.933L586.162,692.95L588.904,695.137L591.759,696.387L595.871,696.074L598.042,697.245L600.326,698.259L605.238,698.571L608.893,698.571L614.49,698.571L619.059,700.053L627.055,701.299L631.967,701.144L638.592,700.053L642.589,700.754L654.583,702.39L661.665,704.18L666.12,706.125L669.204,709.234L672.859,714.045L675.715,716.215L683.368,717.531L688.622,723.176L692.734,725.261L699.588,730.659L704.5,732.738L710.325,734.661L719.806,733.892L720.377,734.584L719.691,737.506L719.12,741.497L719.12,744.411L720.034,745.866L723.689,746.785L725.403,748.163L726.773,750.916L727.459,752.597L730.543,760.909L735.455,773.216L736.026,777.911L737.739,780.935L742.993,785.692L745.849,789.235L749.961,792.999L751.332,796.457L751.675,800.886L752.703,802.011L760.356,800.961L766.866,800.286L778.746,799.01L794.966,801.336L811.757,803.585L826.606,805.532L833.917,806.505L850.479,808.6L859.732,805.906L866.813,803.884L870.126,804.109L883.833,806.505L891.943,807.703L901.995,809.273L909.077,809.871L914.788,809.871L917.529,810.469L920.042,811.515L921.756,813.009L927.01,820.391L929.98,823.74L935.805,826.193L949.056,829.015L956.48,830.722L964.933,832.65L970.416,835.613L976.812,839.091L985.151,843.525L994.175,841.604L1003.998,839.461L1010.052,838.204L1010.052,847.435L1018.847,848.246L1021.589,848.099L1025.472,850.162L1027.642,849.278L1029.699,847.288L1032.326,844.115L1035.981,842.712L1042.492,839.165L1043.977,838.278L1053.572,833.169L1067.85,826.936L1074.246,823.889L1076.188,823.219L1079.729,821.657L1082.242,820.615L1086.468,819.721L1092.408,819.199L1098.805,818.007L1113.197,815.77L1115.025,815.547L1123.249,814.651L1126.676,813.756L1131.816,814.204L1138.555,814.577L1143.01,815.099L1148.95,814.651L1157.174,814.054L1163.685,814.129L1166.997,813.383L1171.795,811.067L1175.107,809.198L1180.247,806.954L1186.53,804.559L1190.87,802.46L1193.84,801.036L1197.381,799.685L1198.295,797.959L1199.323,796.682L1201.15,794.428L1204.577,790.289L1207.204,786.672L1208.461,785.088L1211.317,781.464L1213.601,778.743L1216.685,775.034L1219.198,773.822L1222.282,772.837L1230.735,769.196L1232.334,768.437L1233.819,768.285L1236.789,765.322L1239.187,762.812L1240.901,760.909L1244.213,760.224L1246.041,758.853L1246.269,757.023L1245.927,754.277L1244.328,751.527L1242.957,749.004L1238.045,744.334L1235.532,741.421L1232.905,737.659L1231.877,734.123L1230.049,731.891L1229.136,729.889L1229.478,727.576L1231.877,723.485L1232.791,720.935L1233.819,716.292L1236.103,709.389L1238.045,706.203L1240.215,703.013L1244.899,698.805L1249.125,698.025L1251.752,698.805L1257.349,698.805L1261.233,699.039L1263.974,701.144L1267.058,705.347L1270.599,706.903L1281.451,710.166L1286.134,710.864L1289.447,711.02L1294.358,712.106L1295.957,712.339L1298.47,713.037L1300.526,712.261L1303.725,709.467L1307.723,706.359L1309.436,705.581L1312.52,704.258L1314.119,702.935L1316.861,699.429L1320.516,696.699L1324.856,692.559L1327.027,689.43L1327.484,687.473L1328.055,685.278L1329.311,684.102L1332.053,683.082L1335.022,682.768L1340.734,684.651L1348.501,684.102L1350.214,683.867L1357.296,682.768L1360.38,681.905L1364.949,681.041L1368.376,677.584L1372.945,673.413L1376.258,671.128L1378.542,670.655L1381.284,668.288L1382.654,665.682L1382.312,663.469L1381.855,661.571L1383.454,658.087L1386.424,651.978L1389.165,649.117L1391.45,646.81L1392.935,643.146L1394.648,642.029L1396.932,641.631L1400.016,639.157L1402.301,638.598L1406.07,639.795L1411.667,640.115L1415.323,640.274L1417.379,639.795L1418.064,638.438L1418.064,636.361L1419.206,631.721L1419.663,630.199L1420.691,629.478L1424.118,629.398L1426.517,631.08L1428.116,632.442L1430.286,632.602L1432.571,631.721L1435.655,627.955L1440.795,625.788L1443.536,625.226L1448.334,623.46L1451.304,624.102L1456.901,624.584L1459.071,624.183L1461.47,624.584L1463.526,622.013L1465.239,621.45L1468.894,622.576L1471.179,624.584L1475.405,627.072L1480.774,628.195L1485.228,627.634L1489.912,628.676L1492.653,628.596L1493.91,627.554L1497.793,625.548L1498.707,622.736L1498.25,620.003L1498.707,616.944L1497.565,614.607L1495.28,611.299L1494.366,609.037L1494.252,606.127L1492.767,603.293L1489.226,599.97L1486.942,598.348L1482.144,592.498L1480.545,591.114L1479.974,590.219L1479.517,588.183L1477.69,587.286L1475.405,585.737L1474.149,584.186L1473.349,581.491L1472.778,579.693L1470.836,578.221L1468.78,577.402L1466.381,576.338L1462.612,574.782L1460.442,571.748L1456.558,565.999L1454.273,564.107L1446.163,563.367L1443.194,561.967L1439.881,562.461L1437.825,563.367L1433.484,563.367L1431.2,563.943L1428.23,567.643L1424.346,572.569L1421.262,575.601L1418.978,578.63L1417.95,579.775L1415.894,579.121L1413.038,575.601L1409.04,572.487L1405.271,571.092L1403.672,570.271L1399.217,569.533L1395.676,569.779L1391.335,570.928L1386.995,570.682L1385.167,569.943L1382.426,570.025L1377.4,573.307L1374.887,576.993L1371.803,578.139L1369.061,575.683L1365.863,572.815L1362.893,569.286L1361.066,565.917L1359.923,557.102L1363.579,554.46L1368.262,551.567L1368.605,546.847L1368.49,541.621L1369.404,535.8L1373.63,530.466L1375.801,525.956L1376.143,523.196L1378.199,518.504L1380.141,513.636L1382.768,507.158L1387.794,495.757L1393.734,482.09L1396.704,475.269L1403.215,479.534L1407.441,481.664L1414.523,485.068L1421.948,485.833L1428.915,489.4L1432.571,490.503L1434.512,490.503L1444.45,481.749L1452.789,474.244L1462.498,468.429L1469.58,467.658L1474.948,465.945L1478.489,463.286L1480.545,458.905L1481.231,452.794L1479.746,449.085L1476.319,447.789L1475.405,446.493L1477.118,445.11L1478.375,442.601L1479.175,438.702L1481.116,435.058L1484.429,431.668L1486.142,427.839L1486.485,423.566L1488.427,419.374L1491.968,415.174L1493.91,411.229L1494.252,407.629L1496.08,403.232L1500.877,395.295L1504.076,386.268L1509.444,379.963L1518.125,373.552L1523.608,367.124L1525.778,360.767L1525.55,355.111L1523.037,350.252L1522.58,345.203L1524.179,340.142L1522.809,336.339L1518.468,333.801L1513.442,333.165L1507.388,334.435L1504.076,332.893L1503.39,328.442L1504.989,324.802L1508.873,322.068L1515.384,315.31L1524.293,304.492L1533.203,298.603L1546.567,296.852L1557.305,293.346L1568.27,289.649L1576.152,287.891L1577.522,289.094L1581.749,289.371L1589.059,288.816L1595.798,287.243L1602.081,284.741L1606.992,284.092L1610.648,285.483L1612.704,285.483L1614.074,285.668L1614.874,285.668L1616.473,284.648L1620.699,286.502L1628.695,292.145L1633.721,294.638L1635.891,293.992L1638.176,295.561L1640.575,299.248L1643.659,301.458L1649.142,302.47L1654.624,306.513L1656.909,306.788L1657.594,304.492L1659.65,303.205L1662.963,302.837L1667.76,304.86L1674.043,309.174L1677.926,311.099L1679.525,310.549L1681.239,311.374L1682.61,313.388L1682.724,315.95L1682.153,317.23L1683.752,319.33L1685.465,319.33L1688.321,320.334L1690.491,324.073L1692.433,325.803L1693.918,327.35L1694.146,328.533L1694.26,329.805L1693.804,330.805L1693.118,332.349L1692.89,334.073L1693.804,335.977L1697.345,337.426L1698.487,338.785L1698.829,340.685L1699.858,342.674L1702.256,345.022L1703.17,347.007L1702.599,348.54L1703.284,349.892L1704.541,350.883L1704.769,354.662L1704.883,356.818L1706.825,359.242L1707.168,364.082L1708.539,369.537L1713.108,376.938L1714.593,381.03L1714.136,385.736L1714.821,387.952L1716.877,389.104L1717.905,391.052L1717.791,393.97L1718.59,395.825L1719.276,397.767L1718.819,400.766L1719.39,403.496L1720.532,405.08L1721.218,407.981L1721.675,411.668L1724.759,417.45L1730.356,425.311L1733.782,431.408L1735.039,435.752L1735.039,439.309L1733.897,442.082L1733.782,444.072L1734.925,445.37L1735.153,447.098L1734.81,449.257L1736.638,451.845L1742.806,456.239L1740.293,463.028L1739.722,467.83L1739.951,472.792L1741.55,476.379L1744.291,478.426L1746.004,480.557L1746.576,482.771L1749.888,485.153L1755.828,487.787L1763.367,488.212L1772.505,486.513L1778.102,486.258L1780.158,487.362L1780.843,489.061L1780.272,491.436L1781.757,492.877L1785.526,493.64L1788.154,495.08L1789.638,497.28L1791.352,497.873L1793.408,496.942L1795.35,497.027L1797.406,498.295L1798.662,497.873L1799.69,496.519L1801.518,496.519L1803.346,496.604L1804.488,499.733L1806.315,501.507L1808.828,501.929L1812.712,505.809L1820.479,516.827L1825.505,520.684L1830.531,521.94L1836.813,522.191L1838.87,526.374L1837.156,530.883L1836.813,534.634L1838.184,535.966L1840.126,540.291L1842.982,542.866L1843.439,544.858L1844.809,547.096L1844.238,551.236L1841.839,557.267L1842.525,562.461L1846.18,566.657L1848.35,570.764L1848.807,574.7L1849.721,577.075L1851.092,577.893L1854.861,577.648L1861.143,576.174L1865.712,576.42L1868.682,578.384L1875.878,578.466L1887.415,576.666L1894.726,576.093L1897.81,576.829L1900.551,574.29L1902.95,568.547L1905.12,565.835L1907.176,566.164L1910.489,564.354L1915.058,560.319L1919.056,558.34L1923.967,558.505L1929.336,558.752L1932.648,557.02L1935.732,553.468L1941.215,550.326L1952.752,546.184L1955.493,545.604L1956.75,545.77L1960.634,546.433L1964.06,548.007L1967.259,551.236L1967.715,553.303L1967.373,556.029L1966.687,557.598L1965.431,559.412L1964.175,562.296L1964.974,564.519L1966.802,569.286L1968.287,572.733L1970,576.829L1969.315,578.221L1968.287,581.083L1965.088,585.818L1963.375,587.612L1961.547,589.405L1958.349,589.812L1956.978,590.219L1955.379,590.952L1954.465,592.66L1953.323,593.88L1951.496,596.237L1951.381,598.267L1952.181,601.268L1952.638,604.346L1950.467,607.097L1948.868,611.299L1948.411,612.59L1947.612,615.816L1947.383,616.863L1946.927,623.62L1944.87,628.195L1941.901,633.482L1942.586,636.681L1943.043,639.556L1942.358,640.992L1942.243,642.269L1941.786,645.058L1940.873,646.173L1938.245,647.924L1936.646,649.991L1936.989,653.249L1936.189,656.026L1935.047,658.483L1933.676,660.067L1931.963,661.096L1930.707,661.967L1929.793,665.05L1929.564,667.42L1928.65,669.866L1929.222,672.31L1928.308,674.358L1925.681,675.853L1924.31,676.719L1922.939,677.112L1920.312,679.392L1918.028,687.238L1917.456,691.777L1918.028,695.762L1914.829,698.337L1912.431,700.364L1910.946,699.585L1909.346,698.961L1905.691,698.025L1903.864,697.479L1900.094,696.152L1894.269,694.512L1888.443,692.559L1884.902,691.542L1882.047,690.682L1879.876,689.352L1878.049,686.924L1876.221,687.942L1874.508,690.76L1871.766,692.403L1870.51,695.528L1869.368,697.947L1866.398,701.066L1865.141,702.39L1859.544,704.57L1858.174,705.27L1853.605,705.736L1852.005,706.67L1850.406,708.612L1849.949,710.632L1851.092,712.727L1852.919,716.912L1853.719,719.775L1854.975,725.416L1859.087,743.031L1857.717,746.019L1856.46,759.157L1856.803,761.518L1856.689,765.17L1856.803,767.905L1857.602,768.513L1858.745,769.5L1859.316,771.017L1859.202,773.443L1858.63,775.186L1857.717,778.667L1856.574,783.73L1855.318,785.692L1854.404,787.2L1853.719,788.255L1853.605,791.795L1853.148,794.127L1851.206,794.954L1849.15,796.307L1846.865,795.856L1844.695,796.081L1842.182,796.983L1837.613,798.034L1834.872,799.46L1833.615,800.511L1832.701,801.711L1832.587,802.91L1833.158,803.51L1835.785,803.959L1837.499,806.206L1837.841,808.6L1836.014,809.946L1835.1,808.451L1833.501,808.002L1830.645,805.832L1828.589,803.51L1827.104,800.961L1827.104,795.405L1826.876,794.578L1824.02,793.45L1823.221,791.795L1821.85,791.042L1819.908,791.494L1818.537,790.967L1817.395,790.063L1816.024,789.988L1814.882,791.418L1814.197,794.503L1812.255,799.61L1812.027,802.61L1811.227,807.029L1810.313,812.561L1809.628,813.756L1807.458,813.905L1806.658,814.278L1805.516,816.143L1804.145,816.442L1802.889,815.397L1800.947,814.278L1799.119,814.129L1797.52,815.248L1795.578,817.635L1794.436,819.572L1794.093,821.359L1793.751,823.591L1791.809,825.747L1789.981,826.862L1786.326,829.98L1785.069,831.315L1782.442,831.315L1779.587,831.167L1775.703,832.057L1769.306,832.502L1765.537,831.834L1760.854,832.427L1757.199,833.465L1756.742,835.021L1756.856,837.242L1757.541,838.721L1758.455,839.757L1759.94,842.786L1761.539,845.739L1763.938,847.583L1764.966,849.646L1765.08,851.561L1763.938,853.915L1762.11,857.003L1760.511,858.986L1759.369,858.912L1757.427,857.737L1756.171,856.341L1753.201,855.827L1745.89,856.709L1742.235,856.121L1740.522,854.945L1737.438,854.871L1732.64,853.327L1729.785,852.885L1728.414,851.855L1728.185,849.646L1726.815,848.099L1726.015,846.255L1724.302,843.894L1722.588,842.786L1720.989,842.269L1719.162,843.672L1717.334,844.927L1715.963,844.632L1715.278,845.001L1714.478,846.034L1711.394,848.246L1710.709,850.235L1709.452,854.357L1708.653,858.692L1707.853,860.233L1706.711,860.454L1705.455,861.774L1702.713,865.805L1700.429,869.537L1696.888,872.023L1695.289,874.287L1694.489,876.404L1691.976,879.32L1688.321,879.83L1685.465,880.705L1683.752,880.923L1682.495,882.088L1681.467,883.835L1681.125,884.563L1679.411,884.563L1677.812,886.09L1673.814,889.577L1670.616,890.231L1666.504,892.48L1662.963,894.293L1661.478,895.235L1661.021,896.322L1660.564,897.698L1658.736,897.987L1657.137,897.915L1653.368,901.098L1651.426,903.773L1644.116,909.474L1641.146,912.716L1640.346,916.89L1640.004,916.531L1637.376,920.196L1632.236,923.641L1621.271,924.359L1617.844,921.919L1616.587,923.641L1615.559,925.864L1612.704,926.653L1608.249,926.796L1605.736,928.3L1604.365,929.947L1598.197,930.52L1595.913,932.737L1592.029,933.524L1576.037,943.158L1572.611,947.217L1569.298,951.908L1566.899,954.322L1564.843,955.954L1563.016,956.663L1561.074,958.294L1559.246,958.507L1557.305,957.727L1555.134,958.01L1553.764,959.994L1554.906,962.543L1554.335,963.675L1550.108,965.019L1543.826,965.938L1541.199,967.634L1540.285,968.623L1538.914,969.117L1537.544,965.797L1537.087,961.411L1539.714,960.349L1541.998,959.782L1555.248,953.684L1553.649,949.137L1554.792,947.145L1557.761,943.942L1559.703,942.303L1558.561,941.733L1549.994,942.802L1544.968,942.731L1542.455,942.374L1543.255,939.594L1542.798,936.882L1542.227,935.81L1546.567,932.666L1548.623,931.879L1550.108,931.951L1549.994,930.019L1548.738,927.154L1550.108,923.426L1559.132,919.047L1561.302,915.092L1564.843,911.42L1571.468,902.183L1571.925,900.592L1573.753,896.249L1574.096,894.51L1571.126,891.972L1569.869,888.415L1560.96,881.943L1560.16,876.404L1559.361,876.623L1557.99,880.486L1556.848,881.797L1552.736,881.87L1550.679,880.413L1539.257,879.466L1536.401,881.943L1533.774,885.799L1531.261,888.56L1528.634,890.013L1526.464,892.553L1517.211,907.455L1513.671,908.609L1497.222,917.537L1488.998,921.058L1482.601,927.298L1480.431,931.021L1478.489,935.168L1477.347,941.448L1471.521,949.066L1469.465,950.701L1467.409,951.34L1464.782,951.127L1462.383,951.624L1458.386,950.914L1453.474,953.329L1447.991,955.387L1443.194,950.203L1439.767,948.852L1434.284,950.345L1431.657,952.69L1426.288,964.17L1424.346,970.741L1424.461,973.421L1427.545,981.588L1431.086,986.085L1438.967,991.275L1455.758,994.846L1459.642,993.586L1463.868,993.586L1468.323,996.945L1471.065,1002.535L1471.407,1006.372L1471.407,1007.697L1472.435,1008.811L1473.006,1010.692L1471.293,1012.292L1469.922,1013.127L1468.78,1018.965L1468.78,1025.483L1470.151,1027.63L1473.806,1030.674L1479.403,1033.163L1484.543,1033.715L1494.366,1032.541L1498.364,1028.599L1498.136,1026.938L1498.25,1024.721L1506.931,1018.965L1511.843,1013.823L1511.043,1012.501L1510.13,1011.597L1511.043,1011.04L1513.671,1010.692L1525.778,1005.396L1535.259,1009.717L1540.628,1014.727L1545.996,1015.63L1549.766,1018.131L1553.992,1020.353L1559.589,1020.492L1564.272,1020.977L1565.757,1018.895L1567.242,1017.576L1568.841,1017.854L1570.783,1020.492L1576.152,1022.572L1581.063,1022.434L1584.49,1021.671L1586.546,1022.642L1583.576,1026.037L1584.033,1031.504L1581.749,1033.232L1579.578,1035.994L1580.835,1037.789L1581.977,1038.616L1581.863,1040.823L1579.921,1042.063L1576.266,1045.368L1574.096,1045.299L1573.068,1044.68L1572.382,1043.441L1571.925,1041.581L1570.555,1040.34L1567.014,1039.858L1563.244,1040.271L1554.906,1045.162L1546.796,1049.082L1538.229,1052.173L1535.373,1054.095L1533.317,1054.644L1529.89,1053.134L1527.72,1053.272L1527.263,1054.233L1530.005,1056.976L1530.69,1059.1L1530.347,1060.676L1528.862,1061.429L1526.578,1060.196L1524.522,1061.908L1523.608,1064.781L1523.608,1071.544L1522.237,1073.044L1518.468,1073.863L1514.47,1076.044L1512.985,1075.021L1512.414,1073.863L1512.871,1070.725L1512.414,1069.223L1510.586,1069.291L1507.731,1070.179L1505.675,1072.294L1504.989,1073.522L1507.731,1077.474L1510.358,1077.883L1511.043,1078.768L1508.873,1080.741L1503.733,1083.597L1502.819,1086.043L1501.334,1088.351L1499.164,1090.182L1497.679,1092.081L1495.966,1093.097L1493.11,1094.249L1489.569,1098.852L1486.942,1103.245L1483.858,1105.405L1481.459,1112.753L1477.118,1116.656L1475.519,1122.972L1476.662,1126.862L1481.345,1126.795L1483.744,1128.203L1488.769,1133.291L1494.709,1136.568L1500.763,1138.439L1508.302,1143.177L1510.472,1145.111L1512.186,1149.175L1515.498,1160.738L1517.783,1166.438L1518.011,1169.482L1521.552,1175.101L1525.321,1184.73L1529.548,1193.083L1530.462,1199.58L1528.977,1202.594L1529.091,1206.456L1533.317,1210.053L1543.026,1214.168L1544.511,1215.343L1546.453,1217.365L1546.453,1223.555L1547.938,1225.573L1549.309,1226.743L1555.134,1229.409L1557.533,1231.553L1560.16,1235.058L1560.846,1238.171L1561.188,1242.382L1557.876,1242.511L1555.248,1242.058L1544.854,1236.615L1542.113,1236.42L1538.343,1237.199L1532.86,1236.161L1527.035,1230.124L1522.923,1228.304L1518.468,1227.329L1507.845,1232.592L1505.104,1232.202L1504.304,1232.787L1503.048,1233.695L1508.073,1234.799L1512.985,1233.111L1517.783,1230.579L1524.636,1231.943L1525.778,1234.215L1526.921,1238.041L1531.718,1240.633L1535.488,1241.799L1540.171,1245.165L1544.854,1250.53L1554.677,1256.661L1558.675,1262.459L1560.16,1266.254L1561.531,1271.587L1558.104,1273.321L1555.134,1273.577L1550.451,1274.411L1547.024,1276.271L1543.483,1279.604L1533.66,1284.853L1531.718,1288.114L1530.462,1290.924L1528.063,1292.329L1521.895,1290.988L1516.183,1291.116L1509.787,1294.945L1508.188,1296.476L1509.216,1296.221L1510.244,1295.71L1513.099,1296.284L1517.668,1294.243L1522.009,1300.49L1530.69,1299.471L1538.8,1294.243L1541.884,1294.18L1544.511,1295.009L1547.367,1297.049L1555.248,1306.09L1559.475,1307.108L1563.701,1309.205L1565.986,1309.459L1568.042,1310.094L1562.445,1313.396L1555.134,1320.56L1551.936,1322.27L1549.766,1324.169L1555.591,1323.219L1559.817,1319.8L1561.874,1318.976L1563.587,1319.737L1564.386,1323.979L1562.787,1336.929L1560.731,1337.118L1558.789,1333.585L1556.505,1332.512L1554.449,1333.206L1550.679,1333.206L1549.195,1334.784L1547.938,1337.055L1550.223,1337.496L1554.792,1341.403L1555.248,1343.481L1553.992,1344.866L1550.794,1344.299L1554.677,1347.193L1553.649,1350.211L1552.393,1351.404L1550.108,1352.158L1548.738,1354.795L1550.794,1359.123L1552.85,1364.698L1553.078,1367.389L1549.88,1366.263L1544.968,1369.64L1542.341,1369.89L1540.513,1365.449L1538.343,1366.138L1536.858,1367.452L1534.802,1372.265L1532.403,1376.574L1530.233,1377.759L1527.72,1377.447L1525.664,1377.572L1526.235,1378.695L1528.406,1380.129L1528.406,1381.812L1523.722,1387.043L1522.923,1389.097L1523.037,1390.838L1520.638,1392.952L1521.895,1396.492L1521.209,1398.975L1519.039,1402.324L1516.869,1404.555L1514.127,1408.147L1510.815,1410.19L1506.36,1417.731L1505.104,1421.497L1504.761,1425.382L1503.276,1426.676L1500.992,1428.401L1498.25,1427.539L1498.136,1424.95L1496.994,1424.704L1496.308,1423.039L1496.08,1420.88L1496.423,1419.151L1495.28,1419.645L1494.595,1421.682L1492.767,1423.347L1490.94,1422.669L1488.884,1421.311L1488.998,1423.285L1490.026,1425.197L1490.483,1427.169L1493.224,1427.539L1495.166,1429.817L1496.651,1433.202L1496.879,1434.494L1498.022,1436.031L1498.136,1437.322L1495.509,1438.551L1492.196,1440.763L1488.198,1444.63L1484.886,1447.205L1481.916,1447.205L1480.203,1446.899L1477.575,1445.427L1474.606,1444.814L1478.603,1450.025L1480.774,1450.944L1483.515,1450.76L1486.142,1448.799L1489.912,1448.983L1490.825,1451.985L1489.797,1455.352L1487.741,1459.755L1487.399,1463.544L1489.912,1468.915L1490.026,1470.561L1488.998,1471.354L1486.028,1469.951L1483.629,1468.183L1481.116,1468.61L1478.603,1467.878L1475.976,1468.488L1474.834,1469.769L1475.634,1471.841L1477.918,1473.548L1479.289,1476.167L1477.69,1477.08L1471.065,1476.471L1469.465,1476.958L1467.524,1479.819L1468.78,1484.136L1467.295,1486.749L1464.554,1487.417L1460.898,1489.542L1458.728,1490.028L1458.842,1490.938L1460.442,1491.909L1461.355,1493.183L1459.299,1497.547L1456.329,1498.941L1451.532,1498.214L1447.877,1499.243L1444.679,1497.365L1441.252,1497.305L1438.967,1499.667L1438.739,1502.392L1436.454,1502.634L1435.198,1502.452L1433.484,1502.634L1433.713,1504.086L1434.627,1505.356L1439.31,1505.961L1440.11,1507.775L1440.338,1510.615L1435.426,1515.445L1433.37,1518.703L1430.286,1518.642L1428.002,1521.235L1426.745,1524.849L1425.146,1524.126L1421.605,1524.668L1420.463,1526.354L1421.377,1527.077L1421.491,1528.28L1420.006,1532.31L1418.407,1533.392L1417.721,1531.769L1417.264,1529.243L1416.008,1529.062L1413.952,1531.408L1411.439,1533.091L1409.383,1533.753L1407.784,1532.19L1403.9,1531.408L1402.415,1538.138L1399.103,1540.539L1397.618,1541.319L1394.991,1541.559L1396.704,1542.459L1397.275,1544.198L1396.247,1545.876L1393.62,1546.236L1392.135,1547.555L1391.564,1553.542L1389.965,1555.636L1385.967,1555.756L1382.997,1554.38L1382.083,1555.517L1381.626,1556.534L1380.027,1557.61L1377.057,1557.909L1370.318,1560.598L1367.348,1559.822L1363.693,1558.806L1361.066,1559.822L1360.266,1561.853L1359.124,1563.406L1355.469,1563.406L1352.499,1561.495L1349.529,1560.061L1346.216,1561.256L1343.703,1563.764L1340.619,1564.6L1340.048,1566.152L1338.678,1566.928L1335.365,1566.629L1334.109,1562.749L1332.281,1562.211L1330.453,1564.122L1329.768,1565.674L1328.854,1566.808L1329.197,1569.97L1327.369,1570.03L1324.971,1568.121L1322.343,1567.763L1320.059,1569.552L1318.802,1569.075L1317.546,1568.717L1315.49,1568.717L1314.69,1569.195L1313.205,1569.493L1312.177,1570.447L1312.063,1570.566L1309.436,1569.91L1306.123,1567.286L1303.839,1562.928L1300.869,1560.598L1299.498,1558.507L1299.041,1554.799L1298.47,1553.064L1298.699,1551.088L1299.498,1549.352L1296.3,1550.25L1294.016,1551.867L1294.472,1553.902L1293.901,1555.816L1290.36,1556.773L1290.589,1557.61L1290.817,1558.447L1293.559,1561.017L1294.13,1563.167L1295.272,1564.361L1297.442,1567.703L1297.328,1574.261L1298.585,1576.108L1298.128,1577.894L1297.328,1580.394L1297.214,1580.394L1296.528,1579.68L1295.5,1579.799L1295.158,1580.632L1295.044,1581.406L1294.929,1581.465L1293.102,1582L1291.503,1582.476L1290.246,1583.13L1288.304,1585.033L1284.535,1585.509L1282.707,1580.989L1280.08,1584.022L1279.395,1590.202L1278.367,1591.271L1276.768,1592.161L1273.798,1589.964L1271.171,1591.449L1269.114,1592.933L1268.201,1594.238L1266.716,1595.721L1263.86,1594.298L1261.461,1592.161L1262.033,1590.558L1261.804,1589.549L1260.662,1588.717L1259.52,1588.836L1260.091,1590.915L1260.548,1594.891L1259.405,1596.018L1257.806,1596.908L1254.265,1596.196L1251.866,1594.713L1248.897,1593.467L1246.384,1593.23L1245.813,1595.721L1244.099,1597.797L1242.614,1598.034L1241.015,1597.678L1238.959,1599.872L1238.045,1601.472L1235.532,1603.189L1228.907,1603.959L1226.508,1605.676L1223.424,1605.38L1221.026,1605.795L1219.541,1605.676L1218.398,1604.788L1216.914,1604.788L1216.342,1607.57L1212.573,1608.753L1209.146,1609.049L1205.377,1612.715L1202.635,1614.902L1200.694,1615.138L1199.209,1614.37L1198.409,1611.06L1197.724,1610.705L1197.267,1613.779L1196.581,1616.32L1195.211,1617.737L1190.87,1620.925L1189.614,1624.111L1190.413,1627L1196.239,1627.707L1197.038,1629.298L1196.467,1630.594L1194.982,1631.713L1194.64,1633.362L1200.922,1638.54L1201.15,1640.539L1200.122,1641.656L1198.98,1644.066L1195.668,1646.121L1188.586,1647.178L1182.76,1646.121L1180.933,1643.772L1181.047,1642.127L1182.532,1642.597L1184.131,1642.42L1183.674,1640.892L1182.989,1640.01L1180.247,1638.658L1178.077,1635.01L1178.534,1632.008L1177.277,1629.652L1176.021,1627.648L1174.65,1626.469L1173.965,1624.996L1175.336,1620.394L1174.536,1617.737L1177.049,1614.429L1177.734,1610.705L1182.189,1609.404L1182.532,1605.854L1179.219,1605.735L1177.049,1603.13L1176.478,1604.196L1174.764,1604.314L1171.795,1599.338L1170.881,1598.686L1169.51,1598.568L1170.195,1603.9L1166.769,1605.854L1163.913,1606.742L1159.915,1607.097L1157.631,1607.688L1155.575,1607.215L1156.032,1605.617L1157.174,1603.663L1156.146,1602.064L1153.861,1600.879L1150.435,1600.938L1148.036,1600.583L1145.751,1600.701L1144.837,1599.99L1142.667,1597.5L1140.725,1595.959L1139.926,1594.416L1140.725,1592.577L1140.04,1591.508L1136.385,1591.389L1136.499,1593.942L1136.842,1597.026L1137.87,1599.338L1137.184,1600.642L1135.357,1601.531L1133.415,1599.042L1132.501,1598.449L1131.473,1598.568L1130.788,1600.998L1129.074,1603.189L1125.876,1602.952L1123.363,1604.314ZM1212.916,1656.33L1214.401,1657.854L1215.429,1660.021L1216.342,1664.003L1216.799,1667.689L1213.601,1670.028L1210.745,1670.964L1205.034,1679.958L1203.778,1682.759L1202.864,1683.983L1202.521,1685.208L1202.635,1686.432L1201.15,1690.744L1199.78,1696.042L1198.98,1698.194L1197.381,1699.823L1195.211,1700.695L1193.954,1700.811L1192.698,1701.276L1189.614,1704.124L1186.187,1706.332L1186.758,1707.319L1186.758,1708.248L1185.273,1709.293L1183.674,1709.119L1178.877,1709.932L1177.049,1711.557L1175.221,1714.516L1174.536,1714.922L1171.68,1715.618L1169.396,1715.908L1165.626,1713.82L1163.799,1713.182L1158.773,1712.311L1153.861,1710.919L1150.435,1709.293L1143.467,1705.286L1142.667,1698.136L1141.411,1694.237L1141.411,1692.84L1141.868,1680.833L1142.325,1679.55L1143.238,1678.382L1146.322,1675.696L1149.863,1673.535L1154.889,1669.093L1158.659,1667.046L1161.743,1664.12L1159.915,1664.237L1158.545,1663.886L1159.915,1661.368L1161.286,1660.021L1162.885,1659.319L1166.198,1659.846L1169.282,1659.319L1171.452,1657.092L1173.622,1656.623L1181.732,1657.326L1187.329,1656.33L1190.071,1654.278L1191.441,1654.161L1195.553,1654.747L1197.153,1656.916L1197.038,1655.451L1197.153,1654.102L1197.952,1654.22L1203.321,1656.858L1203.321,1653.633L1203.663,1652.753L1205.377,1651.404L1206.176,1651.463L1208.347,1654.044L1210.289,1655.568Z" fill="none" stroke="#111" stroke-width="1.4" stroke-linejoin="round"/>
  </g>
</svg>